/* XPM */
static char * C:\Users\angel\OneDrive\Imagens\Blocks\yellow_block_xpm[] = {
"40 20 6 1",
" 	c None",
".	c #FFFFFF",
"+	c #F6DF00",
"@	c #D3A700",
"#	c #FFFF00",
"$	c #DDC700",
"........................................",
".+++++++++++++++++++++++++++++++++++++@.",
".+##########++++++++++++++++++++++++++@.",
".+###+++++++++++++++++++++++++++++++++@.",
".+##++++++++++++++++++++++++++++++++++@.",
".+#++++++++++++++++++++++++++++++++++$@.",
".+#++++++++++++++++++++++++++++++++++$@.",
".+#++++++++++++++++++++++++++++++++++$@.",
".+#++++++++++++++++++++++++++++++++++$@.",
".++++++++++++++++++++++++++++++++++++$@.",
".++++++++++++++++++++++++++++++++++++$@.",
".++++++++++++++++++++++++++++++++++++$@.",
".++++++++++++++++++++++++++++++++++++$@.",
".++++++++++++++++++++++++++++++++++++$@.",
".++++++++++++++++++++++++++++++++++++$@.",
".+++++++++++++++++++++++++++++++++++$$@.",
".++++++++++++++++++++++++++++++++++$$$@.",
".++++++++++++++++++$$$$$$$$$$$$$$$$$$$@.",
".@@@@@@@@@@@@@@@@@@@@@@@@@@@@@@@@@@@@@@.",
"........................................"};
