/* XPM */
static char * C:\Users\angel\OneDrive\Desktop\MIEIC\2nd_year\1st_semester\LCOM\MINIX_LCOM\shared\g08\proj\xpm\leaderboard_option_over_xpm[] = {
"234 61 18 1",
" 	c None",
".	c #FFFFFF",
"+	c #006D00",
"@	c #002900",
"#	c #009300",
"$	c #005D00",
"%	c #006900",
"&	c #006100",
"*	c #292323",
"=	c #073C1A",
"-	c #004614",
";	c #00500D",
">	c #15361C",
",	c #004B11",
"'	c #006500",
")	c #005408",
"!	c #1E311F",
"~	c #242A22",
"..........................................................................................................................................................................................................................................",
"..........................................................................................................................................................................................................................................",
"..........................................................................................................................................................................................................................................",
"......++++++++++++++++++++++++++++++++++++++++++++++++++++++++++++++++++++++++++++++++++++++++++++++++++++++++++++++++++++++++++++++++++++++++++++++++++++++++++++++++++++++++++++++++++++++++++++++++++++++++++++++++++++++++@@@@@@......",
"......++++++++++++++++++++++++++++++++++++++++++++++++++++++++++++++++++++++++++++++++++++++++++++++++++++++++++++++++++++++++++++++++++++++++++++++++++++++++++++++++++++++++++++++++++++++++++++++++++++++++++++++++++++++++@@@@@@......",
"......++++++++++++++++++++++++++++++++++++++++++++++++++++++++++++++++++++++++++++++++++++++++++++++++++++++++++++++++++++++++++++++++++++++++++++++++++++++++++++++++++++++++++++++++++++++++++++++++++++++++++++++++++++++++@@@@@@......",
"......++++++###########################################################+++++++++++++++++++++++++++++++++++++++++++++++++++++++++++++++++++++++++++++++++++++++++++++++++++++++++++++++++++++++++++++++++++++++++++++++++++++++@@@@@@......",
"......++++++###########################################################+++++++++++++++++++++++++++++++++++++++++++++++++++++++++++++++++++++++++++++++++++++++++++++++++++++++++++++++++++++++++++++++++++++++++++++++++++++++@@@@@@......",
"......++++++###########################################################+++++++++++++++++++++++++++++++++++++++++++++++++++++++++++++++++++++++++++++++++++++++++++++++++++++++++++++++++++++++++++++++++++++++++++++++++++++++@@@@@@......",
"......++++++#################+++++++++++++++++++++++++++++++++++++++++++++++++++++++++++++++++++++++++++++++++++++++++++++++++++++++++++++++++++++++++++++++++++++++++++++++++++++++++++++++++++++++++++++++++++++++++++++++++@@@@@@......",
"......++++++#################+++++++++++++++++++++++++++++++++++++++++++++++++++++++++++++++++++++++++++++++++++++++++++++++++++++++++++++++++++++++++++++++++++++++++++++++++++++++++++++++++++++++++++++++++++++++++++++++++@@@@@@......",
"......++++++#################+++++++++++++++++++++++++++++++++++++++++++++++++++++++++++++++++++++++++++++++++++++++++++++++++++++++++++++++++++++++++++++++++++++++++++++++++++++++++++++++++++++++++++++++++++++++++++++++++@@@@@@......",
"......++++++###########+++++++++++++++++++++++++++++++++++++++++++++++++++++++++++++++++++++++++++++++++++++++++++++++++++++++++++++++++++++++++++++++++++++++++++++++++++++++++++++++++++++++++++++++++++++++++++++++++++++++@@@@@@......",
"......++++++###########+++++++++++++++++++++++++++++++++++++++++++++++++++++++++++++++++++++++++++++++++++++++++++++++++++++++++++++++++++++++++++++++++++++++++++++++++++++++++++++++++++++++++++++++++++++++++++++++++++++++@@@@@@......",
"......++++++###########+++++++++++++++++++++++++++++++++++++++++++++++++++++++++++++++++++++++++++++++++++++++++++++++++++++++++++++++++++++++++++++++++++++++++++++++++++++++++++++++++++++++++++++++++++++++++++++++++++++++@@@@@@......",
"......++++++######+++++++++++++++++++++++++++++++++++++++++++++++++++++++++++++++++++++++++++++++++++++++++++++++++++++++++++++++++++++++++++++++++++++++++++++++++++++++++++++++++++++++++++++++++++++++++++++++++++++++$$$$$$@@@@@......",
"......++++++######+++++++++++++++++++++++++++++++++++++++++++++++++++++++++++++++++++++++++++++++++++++++++++++++++++++++++++++++++++++++++++++++++++++++++++++++++++++++++++++++++++++++++++++++++++++++++++++++++++++++$$$$$$@@@@@......",
"......++++++######+++++++++++++++++++++++++++++++++++++++++++++++++++++++++++++++++++++++++++++++++++++++++++++++++++++++++++++++++++++++++++++++++++++++++++++++++++++++++++++++++++++++++++++++++++++++++++++++++++++++$$$$$$@@@@@......",
"......++++++######+++++++++++++++++++++++++++++++++++++++++++++++++++++++++++++++++++++++++++++++++++++++++++++++++++++++++++++++++++++++++++++++++++++++++++++++++++++++++++++++++++++++++++++++++++++++++++++++++++++++$$$$$$@@@@@......",
"......++++++######++++%$$$%+++++++++++++++++++++++++++++++++++++++++++++++++++++++++++&$$&+++++++++++++++++++++++++++++++++++++%$$$$$$$$$$%+++++++++++++++++++++++++++++++++++++++++++++++++++++++++++++++++++++&$$&+++++$$$$$$@@@@@......",
"......++++++######++++$***$+++++++++++++++++++++++++++++++++++++++++++++++++++++++++++=**=+++++++++++++++++++++++++++++++++++++$**********$+++++++++++++++++++++++++++++++++++++++++++++++++++++++++++++++++++++=**=+++++$$$$$$@@@@@......",
"......++++++######++++$***$+++++++++++++++++++++++++++++++++++++++++++++++++++++++++++=**=+++++++++++++++++++++++++++++++++++++$**********-;++++++++++++++++++++++++++++++++++++++++++++++++++++++++++++++++++++=**=+++++$$$$$$@@@@@......",
"......++++++######++++$***$+++++++++++++++++++++++++++++++++++++++++++++++++++++++++++=**=+++++++++++++++++++++++++++++++++++++$************++++++++++++++++++++++++++++++++++++++++++++++++++++++++++++++++++++=**=+++++$$$$$$@@@@@......",
"......++++++######++++$***$+++++++++++++++++++++++++++++++++++++++++++++++++++++++++++=**=+++++++++++++++++++++++++++++++++++++$***;$$$$$$>*=,++++++++++++++++++++++++++++++++++++++++++++++++++++++++++++++++++=**=+++++$$$$$$@@@@@......",
"......++++++######++++$***$+++++++++++++++++++++++++++++++++++++++++++++++++++++++++++=**=+++++++++++++++++++++++++++++++++++++$***$++++++=**=++++++++++++++++++++++++++++++++++++++++++++++++++++++++++++++++++=**=+++++$$$$$$@@@@@......",
"......++++++######++++$***$+++++++++++++++++=******$+++++++;********$++++++++++=****;+=**=++++++=******$++++++$***$+********=++$***$++++++=**=+++++++=******$+++++++;********$++++++$***$+********=++++++=****;+=**=+++++$$$$$$@@@@@......",
"......++++++######++++$***$+++++++++++++++'$>******;$++++++;********;$+++++++'$>****-$>**=++++'$>******;$+++++$***;$********=++$***$++++++=**=+++++'$>******;$++++++;********;$+++++$***;$********=++++'$>****-$>**=+++++$$$$$$@@@@@......",
"......++++++++++++++++$***$+++++++++++++++;**********++++++;**********+++++++;***********=++++;**********+++++$*************=++$***$++++++=**=+++++;**********++++++;**********+++++$*************=++++;***********=+++++$$$$$$@@@@@......",
"......++++++++++++++++$***$+++++++++++++';=***;;;=***;)++++$;;;;;;;;!*;)+++';=***;;;=****=++';=***;;;=***;)+++$******!;;;;;;)++$***-;;;;;;!*;)+++';=***;;;=***;)++++$;;;;;;;;!*;)+++$******!;;;;;;)++';=***;;;=****=+++++$$$$$$@@@@@......",
"......++++++++++++++++$***$+++++++++++++$*****+++;****=+++++++++++++=**=+++$*****+++;****=++$*****+++;****=+++$******=+++++++++$************+++++$*****+++;****=+++++++++++++=**=+++$******=+++++++++$*****+++;****=+++++$$$$$$@@@@@......",
"......++++++++++++++++$***$+++++++++++++$***;$+++'$>**=++++)========~**=+++$***;$+++'$>**=++$***;$+++'$>**=+++$*****$&+++++++++$************+++++$***;$+++'$>**=++++)========~**=+++$*****$&+++++++++$***;$+++'$>**=+++++$$$$$$@@@@@......",
"......++++++++++++++++$***$+++++++++++++$***$++++++=**=++++;***********=+++$***$++++++=**=++$***$++++++=**=+++$*****+++++++++++$************+++++$***$++++++=**=++++;***********=+++$*****+++++++++++$***$++++++=**=+++++$$$$$$@@@@@......",
"......++++++++++++++++$***$+++++++++++++$***>======~**=++&=!***********=+++$***$++++++=**=++$***>======~**=+++$***;$+++++++++++$***;$$$$$$>*=,+++$***$++++++=**=++&=!***********=+++$***;$+++++++++++$***$++++++=**=+++++$$$$$$@@@@@......",
"......++++++++++++++++$***$+++++++++++++$*************=++$*************=+++$***$++++++=**=++$*************=+++$***$++++++++++++$***$++++++=**=+++$***$++++++=**=++$*************=+++$***$++++++++++++$***$++++++=**=+++++$$$$$$@@@@@......",
"......++++++++++++++++$***$+++++++++++++$*************=++$***$++++++=**=+++$***$++++++=**=++$*************=+++$***$++++++++++++$***$++++++=**=+++$***$++++++=**=++$***$++++++=**=+++$***$++++++++++++$***$++++++=**=+++++$$$$$$@@@@@......",
"......++++++++++++++++$***$+++++++++++++$*****========,++$***$++++++=**=+++$***;$+++'$>**=++$*****========,+++$***$++++++++++++$***$++++++=**=+++$***;$+++'$>**=++$***$++++++=**=+++$***$++++++++++++$***;$+++'$>**=+++++$$$$$$@@@@@......",
"......++++++++++++++++$***$+++++++++++++$*****+++++++++++$***$++++++=**=+++$*****+++;****=++$*****++++++++++++$***$++++++++++++$***$++++++=**=+++$*****+++;****=++$***$++++++=**=+++$***$++++++++++++$*****+++;****=+++++$$$$$$@@@@@......",
"......++++++++++++++++$***-;;;;;;;;;)+++';=***;;;;;;;++++$***-;;;;;;!**=+++';=***;;;=****=++';=***;;;;;;;+++++$***$++++++++++++$***-;;;;;;!*;)+++';=***;;;=***;)++$***-;;;;;;!**=+++$***$++++++++++++';=***;;;=****=+++++$$$$$$@@@@@......",
"......++++++++++++++++$*************=+++++;**********++++$*************=+++++;***********=++++;**********+++++$***$++++++++++++$************+++++++;**********++++$*************=+++$***$++++++++++++++;***********=+++++$$$$$$@@@@@......",
"......++++++++++++++++$*************=+++++'$>******;$++++%$-***********=+++++'$>****-$>**=++++'$>******;$+++++$***$++++++++++++$**********;$+++++++'$>******;$++++%$-***********=+++$***$++++++++++++++'$>****-$>**=+++++$$$$$$@@@@@......",
"......++++++++++++++++$*************=+++++++=******$+++++++;***********=+++++++=****;+=**=++++++=******$++++++$***$++++++++++++$**********$++++++++++=******$+++++++;***********=+++$***$++++++++++++++++=****;+=**=+++++$$$$$$@@@@@......",
"......+++++++++++++++++++++++++++++++++++++++++++++++++++++++++++++++++++++++++++++++++++++++++++++++++++++++++++++++++++++++++++++++++++++++++++++++++++++++++++++++++++++++++++++++++++++++++++++++++++++++++++++++++++$$$$$$@@@@@......",
"......+++++++++++++++++++++++++++++++++++++++++++++++++++++++++++++++++++++++++++++++++++++++++++++++++++++++++++++++++++++++++++++++++++++++++++++++++++++++++++++++++++++++++++++++++++++++++++++++++++++++++++++++++++$$$$$$@@@@@......",
"......+++++++++++++++++++++++++++++++++++++++++++++++++++++++++++++++++++++++++++++++++++++++++++++++++++++++++++++++++++++++++++++++++++++++++++++++++++++++++++++++++++++++++++++++++++++++++++++++++++++++++++++++++++$$$$$$@@@@@......",
"......+++++++++++++++++++++++++++++++++++++++++++++++++++++++++++++++++++++++++++++++++++++++++++++++++++++++++++++++++++++++++++++++++++++++++++++++++++++++++++++++++++++++++++++++++++++++++++++++++++++++++++++++++++$$$$$$@@@@@......",
"......+++++++++++++++++++++++++++++++++++++++++++++++++++++++++++++++++++++++++++++++++++++++++++++++++++++++++++++++++++++++++++++++++++++++++++++++++++++++++++++++++++++++++++++++++++++++++++++++++++++++++++++++++++$$$$$$@@@@@......",
"......+++++++++++++++++++++++++++++++++++++++++++++++++++++++++++++++++++++++++++++++++++++++++++++++++++++++++++++++++++++++++++++++++++++++++++++++++++++++++++++++++++++++++++++++++++++++++++++++++++++++++++++$$$$$$$$$$$$@@@@@......",
"......+++++++++++++++++++++++++++++++++++++++++++++++++++++++++++++++++++++++++++++++++++++++++++++++++++++++++++++++++++++++++++++++++++++++++++++++++++++++++++++++++++++++++++++++++++++++++++++++++++++++++++++$$$$$$$$$$$$@@@@@......",
"......+++++++++++++++++++++++++++++++++++++++++++++++++++++++++++++++++++++++++++++++++++++++++++++++++++++++++++++++++++++++++++++++++++++++++++++++++++++++++++++++++++++++++++++++++++++++++++++++++++++++++++++$$$$$$$$$$$$@@@@@......",
"......+++++++++++++++++++++++++++++++++++++++++++++++++++++++++++++++++++++++++++++++++++++++++++++++++++++++++++++++++++++++++++++++++++++++++++++++++++++++++++++++++++++++++++++++++++++++++++++++++++++++$$$$$$$$$$$$$$$$$$@@@@@......",
"......+++++++++++++++++++++++++++++++++++++++++++++++++++++++++++++++++++++++++++++++++++++++++++++++++++++++++++++++++++++++++++++++++++++++++++++++++++++++++++++++++++++++++++++++++++++++++++++++++++++++$$$$$$$$$$$$$$$$$$@@@@@......",
"......+++++++++++++++++++++++++++++++++++++++++++++++++++++++++++++++++++++++++++++++++++++++++++++++++++++++++++++++++++++++++++++++++++++++++++++++++++++++++++++++++++++++++++++++++++++++++++++++++++++++$$$$$$$$$$$$$$$$$$@@@@@......",
"......+++++++++++++++++++++++++++++++++++++++++++++++++++++++++++++++++++++++++++++++++++++++++++++++++++++++++$$$$$$$$$$$$$$$$$$$$$$$$$$$$$$$$$$$$$$$$$$$$$$$$$$$$$$$$$$$$$$$$$$$$$$$$$$$$$$$$$$$$$$$$$$$$$$$$$$$$$$$$$$$$$$$$@@@@@......",
"......+++++++++++++++++++++++++++++++++++++++++++++++++++++++++++++++++++++++++++++++++++++++++++++++++++++++++$$$$$$$$$$$$$$$$$$$$$$$$$$$$$$$$$$$$$$$$$$$$$$$$$$$$$$$$$$$$$$$$$$$$$$$$$$$$$$$$$$$$$$$$$$$$$$$$$$$$$$$$$$$$$$$$@@@@@......",
"......+++++++++++++++++++++++++++++++++++++++++++++++++++++++++++++++++++++++++++++++++++++++++++++++++++++++++$$$$$$$$$$$$$$$$$$$$$$$$$$$$$$$$$$$$$$$$$$$$$$$$$$$$$$$$$$$$$$$$$$$$$$$$$$$$$$$$$$$$$$$$$$$$$$$$$$$$$$$$$$$$$$$$@@@@@......",
"......@@@@@@@@@@@@@@@@@@@@@@@@@@@@@@@@@@@@@@@@@@@@@@@@@@@@@@@@@@@@@@@@@@@@@@@@@@@@@@@@@@@@@@@@@@@@@@@@@@@@@@@@@@@@@@@@@@@@@@@@@@@@@@@@@@@@@@@@@@@@@@@@@@@@@@@@@@@@@@@@@@@@@@@@@@@@@@@@@@@@@@@@@@@@@@@@@@@@@@@@@@@@@@@@@@@@@@@@@@@@@@......",
"......@@@@@@@@@@@@@@@@@@@@@@@@@@@@@@@@@@@@@@@@@@@@@@@@@@@@@@@@@@@@@@@@@@@@@@@@@@@@@@@@@@@@@@@@@@@@@@@@@@@@@@@@@@@@@@@@@@@@@@@@@@@@@@@@@@@@@@@@@@@@@@@@@@@@@@@@@@@@@@@@@@@@@@@@@@@@@@@@@@@@@@@@@@@@@@@@@@@@@@@@@@@@@@@@@@@@@@@@@@@@@@......",
"......@@@@@@@@@@@@@@@@@@@@@@@@@@@@@@@@@@@@@@@@@@@@@@@@@@@@@@@@@@@@@@@@@@@@@@@@@@@@@@@@@@@@@@@@@@@@@@@@@@@@@@@@@@@@@@@@@@@@@@@@@@@@@@@@@@@@@@@@@@@@@@@@@@@@@@@@@@@@@@@@@@@@@@@@@@@@@@@@@@@@@@@@@@@@@@@@@@@@@@@@@@@@@@@@@@@@@@@@@@@@@@......",
"..........................................................................................................................................................................................................................................",
"..........................................................................................................................................................................................................................................",
".........................................................................................................................................................................................................................................."};
