/* XPM */
static char * C:\Users\angel\OneDrive\Desktop\MIEIC\2nd_year\1st_semester\LCOM\MINIX_LCOM\shared\g08\proj\xpm\start_menu\reset_option_over_xpm[] = {
"234 61 19 1",
" 	c None",
".	c #FFFFFF",
"+	c #E01AC5",
"@	c #780168",
"#	c #DA60C4",
"$	c #B700A0",
"%	c #D81BBE",
"&	c #BD20A5",
"*	c #C61FAE",
"=	c #362E2E",
"-	c #742A64",
";	c #8B2779",
">	c #A1248C",
",	c #962582",
"'	c #CF1EB6",
")	c #672B59",
"!	c #592C4C",
"~	c #AA2395",
"{	c #492D3E",
"..........................................................................................................................................................................................................................................",
"..........................................................................................................................................................................................................................................",
"..........................................................................................................................................................................................................................................",
"......++++++++++++++++++++++++++++++++++++++++++++++++++++++++++++++++++++++++++++++++++++++++++++++++++++++++++++++++++++++++++++++++++++++++++++++++++++++++++++++++++++++++++++++++++++++++++++++++++++++++++++++++++++++++@@@@@@......",
"......++++++++++++++++++++++++++++++++++++++++++++++++++++++++++++++++++++++++++++++++++++++++++++++++++++++++++++++++++++++++++++++++++++++++++++++++++++++++++++++++++++++++++++++++++++++++++++++++++++++++++++++++++++++++@@@@@@......",
"......++++++++++++++++++++++++++++++++++++++++++++++++++++++++++++++++++++++++++++++++++++++++++++++++++++++++++++++++++++++++++++++++++++++++++++++++++++++++++++++++++++++++++++++++++++++++++++++++++++++++++++++++++++++++@@@@@@......",
"......++++++###########################################################+++++++++++++++++++++++++++++++++++++++++++++++++++++++++++++++++++++++++++++++++++++++++++++++++++++++++++++++++++++++++++++++++++++++++++++++++++++++@@@@@@......",
"......++++++###########################################################+++++++++++++++++++++++++++++++++++++++++++++++++++++++++++++++++++++++++++++++++++++++++++++++++++++++++++++++++++++++++++++++++++++++++++++++++++++++@@@@@@......",
"......++++++###########################################################+++++++++++++++++++++++++++++++++++++++++++++++++++++++++++++++++++++++++++++++++++++++++++++++++++++++++++++++++++++++++++++++++++++++++++++++++++++++@@@@@@......",
"......++++++#################+++++++++++++++++++++++++++++++++++++++++++++++++++++++++++++++++++++++++++++++++++++++++++++++++++++++++++++++++++++++++++++++++++++++++++++++++++++++++++++++++++++++++++++++++++++++++++++++++@@@@@@......",
"......++++++#################+++++++++++++++++++++++++++++++++++++++++++++++++++++++++++++++++++++++++++++++++++++++++++++++++++++++++++++++++++++++++++++++++++++++++++++++++++++++++++++++++++++++++++++++++++++++++++++++++@@@@@@......",
"......++++++#################+++++++++++++++++++++++++++++++++++++++++++++++++++++++++++++++++++++++++++++++++++++++++++++++++++++++++++++++++++++++++++++++++++++++++++++++++++++++++++++++++++++++++++++++++++++++++++++++++@@@@@@......",
"......++++++###########+++++++++++++++++++++++++++++++++++++++++++++++++++++++++++++++++++++++++++++++++++++++++++++++++++++++++++++++++++++++++++++++++++++++++++++++++++++++++++++++++++++++++++++++++++++++++++++++++++++++@@@@@@......",
"......++++++###########+++++++++++++++++++++++++++++++++++++++++++++++++++++++++++++++++++++++++++++++++++++++++++++++++++++++++++++++++++++++++++++++++++++++++++++++++++++++++++++++++++++++++++++++++++++++++++++++++++++++@@@@@@......",
"......++++++###########+++++++++++++++++++++++++++++++++++++++++++++++++++++++++++++++++++++++++++++++++++++++++++++++++++++++++++++++++++++++++++++++++++++++++++++++++++++++++++++++++++++++++++++++++++++++++++++++++++++++@@@@@@......",
"......++++++######+++++++++++++++++++++++++++++++++++++++++++++++++++++++++++++++++++++++++++++++++++++++++++++++++++++++++++++++++++++++++++++++++++++++++++++++++++++++++++++++++++++++++++++++++++++++++++++++++++++++$$$$$$@@@@@......",
"......++++++######+++++++++++++++++++++++++++++++++++++++++++++++++++++++++++++++++++++++++++++++++++++++++++++++++++++++++++++++++++++++++++++++++++++++++++++++++++++++++++++++++++++++++++++++++++++++++++++++++++++++$$$$$$@@@@@......",
"......++++++######+++++++++++++++++++++++++++++++++++++++++++++++++++++++++++++++++++++++++++++++++++++++++++++++++++++++++++++++++++++++++++++++++++++++++++++++++++++++++++++++++++++++++++++++++++++++++++++++++++++++$$$$$$@@@@@......",
"......++++++######+++++++++++++++++++++++++++++++++++++++++++++++++++++++++++++++++++++++++++++++++++++++++++++++++++++++++++++++++++++++++++++++++++++++++++++++++++++++++++++++++++++++++++++++++++++++++++++++++++++++$$$$$$@@@@@......",
"......++++++######+++++++++++++++++++++++++++++++++++++++++++++++++++++++++++++++++++++++++++++++++++++++++++++++++++++++++++++++++++++++++++++++++++++++++++++++++++++++++++++++++++++++++++++++++++++++++++++++++++++++$$$$$$@@@@@......",
"......++++++######+++++++++++++++++++++++++++++++++++++++++++++++++++++++++%&&&&&&&&&&%++++++++++++++++++++++++++++++++++++++++++++++++++++++++++++++*&&*++++++++++++++++++++++++++++++++++++++++++++++++++++++++++++++++$$$$$$@@@@@......",
"......++++++######+++++++++++++++++++++++++++++++++++++++++++++++++++++++++&==========&++++++++++++++++++++++++++++++++++++++++++++++++++++++++++++++-==-++++++++++++++++++++++++++++++++++++++++++++++++++++++++++++++++$$$$$$@@@@@......",
"......++++++######+++++++++++++++++++++++++++++++++++++++++++++++++++++++++&==========;>+++++++++++++++++++++++++++++++++++++++++++++++++++++++++++++-==-++++++++++++++++++++++++++++++++++++++++++++++++++++++++++++++++$$$$$$@@@@@......",
"......++++++######+++++++++++++++++++++++++++++++++++++++++++++++++++++++++&============+++++++++++++++++++++++++++++++++++++++++++++++++++++++++++++-==-++++++++++++++++++++++++++++++++++++++++++++++++++++++++++++++++$$$$$$@@@@@......",
"......++++++######+++++++++++++++++++++++++++++++++++++++++++++++++++++++++&===>&&&&;===-,+++++++++++++++++++++++++++++++++++++++++++++++++++++++++++-==-++++++++++++++++++++++++++++++++++++++++++++++++++++++++++++++++$$$$$$@@@@@......",
"......++++++######+++++++++++++++++++++++++++++++++++++++++++++++++++++++++&===&++++>====-+++++++++++++++++++++++++++++++++++++++++++++++++++++++++++-==-++++++++++++++++++++++++++++++++++++++++++++++++++++++++++++++++$$$$$$@@@@@......",
"......++++++######+++++++++++++++++++++++++++++++++++++++++++++++++++++++++&===&++++++-==-++++++-======&++++++++++-======&+++++++++-======&++++++++>==========+++++++++++++++++++++++++++++++++++++++++++++++++++++++++++$$$$$$@@@@@......",
"......+++++++++++++++++++++++++++++++++++++++++++++++++++++++++++++++++++++&===&++++++-==-++++'&)======>&+++++++'&)======>&++++++'&)======>&+++++++>==========+++++++++++++++++++++++++++++++++++++++++++++++++++++++++++$$$$$$@@@@@......",
"......+++++++++++++++++++++++++++++++++++++++++++++++++++++++++++++++++++++&===&++++++-==-++++>==========+++++++>==========++++++>==========+++++++>==========+++++++++++++++++++++++++++++++++++++++++++++++++++++++++++$$$$$$@@@@@......",
"......+++++++++++++++++++++++++++++++++++++++++++++++++++++++++++++++++++++&===&++++&>!==-++'>-===>>>-===>~+++'>-=;>>>>>>!=>~++'>-===>>>-===>~+++++&>!==!>>>>>+++++++++++++++++++++++++++++++++++++++++++++++++++++++++++$$$$$$@@@@@......",
"......+++++++++++++++++++++++++++++++++++++++++++++++++++++++++++++++++++++&===&++++>====-++&=====+++>====-+++&===&++++++-==-++&=====+++>====-+++++++-==-++++++++++++++++++++++++++++++++++++++++++++++++++++++++++++++++$$$$$$@@@@@......",
"......+++++++++++++++++++++++++++++++++++++++++++++++++++++++++++++++++++++&===)----!===&*++&===>&+++'&)==-+++&===)-+++++*&&*++&===>&+++'&)==-+++++++-==-++++++++++++++++++++++++++++++++++++++++++++++++++++++++++++++++$$$$$$@@@@@......",
"......+++++++++++++++++++++++++++++++++++++++++++++++++++++++++++++++++++++&============++++&===&++++++-==-+++&=====+++++++++++&===&++++++-==-+++++++-==-++++++++++++++++++++++++++++++++++++++++++++++++++++++++++++++++$$$$$$@@@@@......",
"......+++++++++++++++++++++++++++++++++++++++++++++++++++++++++++++++++++++&==========>&++++&===)------{==-+++%&;===-------++++&===)------{==-+++++++-==-++++++++++++++++++++++++++++++++++++++++++++++++++++++++++++++++$$$$$$@@@@@......",
"......+++++++++++++++++++++++++++++++++++++++++++++++++++++++++++++++++++++&==========&+++++&=============-+++++>==========++++&=============-+++++++-==-++++++++++++++++++++++++++++++++++++++++++++++++++++++++++++++++$$$$$$@@@@@......",
"......+++++++++++++++++++++++++++++++++++++++++++++++++++++++++++++++++++++&===&++++>===++++&=============-++++++++++++>====-++&=============-+++++++-==-++++++++++++++++++++++++++++++++++++++++++++++++++++++++++++++++$$$$$$@@@@@......",
"......+++++++++++++++++++++++++++++++++++++++++++++++++++++++++++++++++++++&===&++++~-{=&*++&=====--------,+++%&&&%++++~-{==-++&=====--------,+++++++-==-++++++++++++++++++++++++++++++++++++++++++++++++++++++++++++++++$$$$$$@@@@@......",
"......+++++++++++++++++++++++++++++++++++++++++++++++++++++++++++++++++++++&===&++++++-==-++&=====++++++++++++&===&++++++-==-++&=====++++++++++++++++-==-++++++++++++++++++++++++++++++++++++++++++++++++++++++++++++++++$$$$$$@@@@@......",
"......+++++++++++++++++++++++++++++++++++++++++++++++++++++++++++++++++++++&===&++++++-==-++'>-===>>>>>>>+++++'>-=;>>>>>>!=>~++'>-===>>>>>>>+++++++++-==!>>>>>+++++++++++++++++++++++++++++++++++++++++++++++++++++++++++$$$$$$@@@@@......",
"......+++++++++++++++++++++++++++++++++++++++++++++++++++++++++++++++++++++&===&++++++-==-++++>==========+++++++>==========++++++>==========+++++++++-========+++++++++++++++++++++++++++++++++++++++++++++++++++++++++++$$$$$$@@@@@......",
"......+++++++++++++++++++++++++++++++++++++++++++++++++++++++++++++++++++++&===&++++++-==-++++'&)======>&+++++++'&)======>&++++++'&)======>&+++++++++*&=======+++++++++++++++++++++++++++++++++++++++++++++++++++++++++++$$$$$$@@@@@......",
"......+++++++++++++++++++++++++++++++++++++++++++++++++++++++++++++++++++++&===&++++++-==-++++++-======&++++++++++-======&+++++++++-======&++++++++++++=======+++++++++++++++++++++++++++++++++++++++++++++++++++++++++++$$$$$$@@@@@......",
"......+++++++++++++++++++++++++++++++++++++++++++++++++++++++++++++++++++++++++++++++++++++++++++++++++++++++++++++++++++++++++++++++++++++++++++++++++++++++++++++++++++++++++++++++++++++++++++++++++++++++++++++++++++$$$$$$@@@@@......",
"......+++++++++++++++++++++++++++++++++++++++++++++++++++++++++++++++++++++++++++++++++++++++++++++++++++++++++++++++++++++++++++++++++++++++++++++++++++++++++++++++++++++++++++++++++++++++++++++++++++++++++++++++++++$$$$$$@@@@@......",
"......+++++++++++++++++++++++++++++++++++++++++++++++++++++++++++++++++++++++++++++++++++++++++++++++++++++++++++++++++++++++++++++++++++++++++++++++++++++++++++++++++++++++++++++++++++++++++++++++++++++++++++++++++++$$$$$$@@@@@......",
"......+++++++++++++++++++++++++++++++++++++++++++++++++++++++++++++++++++++++++++++++++++++++++++++++++++++++++++++++++++++++++++++++++++++++++++++++++++++++++++++++++++++++++++++++++++++++++++++++++++++++++++++++++++$$$$$$@@@@@......",
"......+++++++++++++++++++++++++++++++++++++++++++++++++++++++++++++++++++++++++++++++++++++++++++++++++++++++++++++++++++++++++++++++++++++++++++++++++++++++++++++++++++++++++++++++++++++++++++++++++++++++++++++$$$$$$$$$$$$@@@@@......",
"......+++++++++++++++++++++++++++++++++++++++++++++++++++++++++++++++++++++++++++++++++++++++++++++++++++++++++++++++++++++++++++++++++++++++++++++++++++++++++++++++++++++++++++++++++++++++++++++++++++++++++++++$$$$$$$$$$$$@@@@@......",
"......+++++++++++++++++++++++++++++++++++++++++++++++++++++++++++++++++++++++++++++++++++++++++++++++++++++++++++++++++++++++++++++++++++++++++++++++++++++++++++++++++++++++++++++++++++++++++++++++++++++++++++++$$$$$$$$$$$$@@@@@......",
"......+++++++++++++++++++++++++++++++++++++++++++++++++++++++++++++++++++++++++++++++++++++++++++++++++++++++++++++++++++++++++++++++++++++++++++++++++++++++++++++++++++++++++++++++++++++++++++++++++++++++$$$$$$$$$$$$$$$$$$@@@@@......",
"......+++++++++++++++++++++++++++++++++++++++++++++++++++++++++++++++++++++++++++++++++++++++++++++++++++++++++++++++++++++++++++++++++++++++++++++++++++++++++++++++++++++++++++++++++++++++++++++++++++++++$$$$$$$$$$$$$$$$$$@@@@@......",
"......+++++++++++++++++++++++++++++++++++++++++++++++++++++++++++++++++++++++++++++++++++++++++++++++++++++++++++++++++++++++++++++++++++++++++++++++++++++++++++++++++++++++++++++++++++++++++++++++++++++++$$$$$$$$$$$$$$$$$$@@@@@......",
"......+++++++++++++++++++++++++++++++++++++++++++++++++++++++++++++++++++++++++++++++++++++++++++++++++++++++++$$$$$$$$$$$$$$$$$$$$$$$$$$$$$$$$$$$$$$$$$$$$$$$$$$$$$$$$$$$$$$$$$$$$$$$$$$$$$$$$$$$$$$$$$$$$$$$$$$$$$$$$$$$$$$$$@@@@@......",
"......+++++++++++++++++++++++++++++++++++++++++++++++++++++++++++++++++++++++++++++++++++++++++++++++++++++++++$$$$$$$$$$$$$$$$$$$$$$$$$$$$$$$$$$$$$$$$$$$$$$$$$$$$$$$$$$$$$$$$$$$$$$$$$$$$$$$$$$$$$$$$$$$$$$$$$$$$$$$$$$$$$$$$@@@@@......",
"......+++++++++++++++++++++++++++++++++++++++++++++++++++++++++++++++++++++++++++++++++++++++++++++++++++++++++$$$$$$$$$$$$$$$$$$$$$$$$$$$$$$$$$$$$$$$$$$$$$$$$$$$$$$$$$$$$$$$$$$$$$$$$$$$$$$$$$$$$$$$$$$$$$$$$$$$$$$$$$$$$$$$$@@@@@......",
"......@@@@@@@@@@@@@@@@@@@@@@@@@@@@@@@@@@@@@@@@@@@@@@@@@@@@@@@@@@@@@@@@@@@@@@@@@@@@@@@@@@@@@@@@@@@@@@@@@@@@@@@@@@@@@@@@@@@@@@@@@@@@@@@@@@@@@@@@@@@@@@@@@@@@@@@@@@@@@@@@@@@@@@@@@@@@@@@@@@@@@@@@@@@@@@@@@@@@@@@@@@@@@@@@@@@@@@@@@@@@@@......",
"......@@@@@@@@@@@@@@@@@@@@@@@@@@@@@@@@@@@@@@@@@@@@@@@@@@@@@@@@@@@@@@@@@@@@@@@@@@@@@@@@@@@@@@@@@@@@@@@@@@@@@@@@@@@@@@@@@@@@@@@@@@@@@@@@@@@@@@@@@@@@@@@@@@@@@@@@@@@@@@@@@@@@@@@@@@@@@@@@@@@@@@@@@@@@@@@@@@@@@@@@@@@@@@@@@@@@@@@@@@@@@@......",
"......@@@@@@@@@@@@@@@@@@@@@@@@@@@@@@@@@@@@@@@@@@@@@@@@@@@@@@@@@@@@@@@@@@@@@@@@@@@@@@@@@@@@@@@@@@@@@@@@@@@@@@@@@@@@@@@@@@@@@@@@@@@@@@@@@@@@@@@@@@@@@@@@@@@@@@@@@@@@@@@@@@@@@@@@@@@@@@@@@@@@@@@@@@@@@@@@@@@@@@@@@@@@@@@@@@@@@@@@@@@@@@......",
"..........................................................................................................................................................................................................................................",
"..........................................................................................................................................................................................................................................",
".........................................................................................................................................................................................................................................."};
