/* XPM */
static char * C:\Users\angel\OneDrive\Desktop\MIEIC\2nd_year\1st_semester\LCOM\MINIX_LCOM\shared\g08\proj\xpm\start_menu\1v1_option_xpm[] = {
"234 61 21 1",
" 	c None",
".	c #FFFFFF",
"+	c #FF51FF",
"@	c #F12BDD",
"#	c #FF94FB",
"$	c #FF51F9",
"%	c #FF51F6",
"&	c #FF30FF",
"*	c #FA51DD",
"=	c #FF51F0",
"-	c #FF51E7",
";	c #595252",
">	c #D651BD",
",	c #A0528E",
"'	c #915280",
")	c #BD52A7",
"!	c #815273",
"~	c #E351C9",
"{	c #CA52B2",
"]	c #6E5264",
"^	c #FF33F4",
"..........................................................................................................................................................................................................................................",
"..........................................................................................................................................................................................................................................",
"..........................................................................................................................................................................................................................................",
"......++++++++++++++++++++++++++++++++++++++++++++++++++++++++++++++++++++++++++++++++++++++++++++++++++++++++++++++++++++++++++++++++++++++++++++++++++++++++++++++++++++++++++++++++++++++++++++++++++++++++++++++++++++++++@@@@@@......",
"......++++++++++++++++++++++++++++++++++++++++++++++++++++++++++++++++++++++++++++++++++++++++++++++++++++++++++++++++++++++++++++++++++++++++++++++++++++++++++++++++++++++++++++++++++++++++++++++++++++++++++++++++++++++++@@@@@@......",
"......++++++++++++++++++++++++++++++++++++++++++++++++++++++++++++++++++++++++++++++++++++++++++++++++++++++++++++++++++++++++++++++++++++++++++++++++++++++++++++++++++++++++++++++++++++++++++++++++++++++++++++++++++++++++@@@@@@......",
"......++++++###########################################################+++++++++++++++++++++++++++++++++++++++++++++++++++++++++++++++++++++++++++++++++++++++++++++++++++++++++++++++++++++++++++++++++++++++++++++++++++++++@@@@@@......",
"......++++++###########################################################+++++++++++++++++++++++++++++++++++++++++++++++++++++++++++++++++++++++++++++++++++++++++++++++++++++++++++++++++++++++++++++++++++++++++++++++++++++++@@@@@@......",
"......++++++###########################################################+++++++++++++++++++++++++++++++++++++++++++++++++++++++++++++++$+++++++++++++++++++++++++++++++++++++++++++++++++++++++++++++++++++++++++++++++++++++++@@@@@@......",
"......++++++#################+++++++++++++++++++++++++++++++++++++++++++++++++++++++++++++++++++++++++++++++++++++++++++++++++++++++++%+++++++++++++++++++++++++++++++++++++++++++++++++++++++++++++++++++++++++++++++++++++++@@@@@@......",
"......++++++#################+++++++++++++++++++++++++++++++++++++++++++++++++++++++++++++++++++++++++++++++++++++++++++++++++++++++++%+++++++++++++++++++++++++++++++++++++++++++++++++++++++++++++++++++++++++++++++++++++++@@@@@@......",
"......++++++#################+++++++++++++++++++++++++++++++++++++++++++++++++++++++++++++++++++++++++++++++++++++++++++++++++++++++++%+++++++++++++++++++++++++++++++++++++++++++++++++++++++++++++++++++++++++++++++++++++++@@@@@@......",
"......++++++###########+++++++++++++++++++++++++++++++++++++++++++++++++++++++++++++++++++++++++++++++++++++++++++++++++++++++++++++++%+++++++++++++++++++++++++++++++++++++++++++++++++++++++++++++++++++++++++++++++++++++++@@@@@@......",
"......++++++###########+++++++++++++++++++++++++++++++++++++++++++++++++++++++++++++++++++++++++++++++++++++++++++++++++++++++++++++++%+++++++++++++++++++++++++++++++++++++++++++++++++++++++++++++++++++++++++++++++++++++++@@@@@@......",
"......++++++###########+++++++++++++++++++++++++++++++++++++++++++++++++++++++++++++++++++++++++++++++++++++++++++++++++++++++++++++++%+++++++++++++++++++++++++++++++++++++++++++++++++++++++++++++++++++++++++++++++++++++++@@@@@@......",
"......++++++######++++++++++++++++++++++++++++++++++++++++++++++++++++++++++++++++++++++++++++++++++++++++++++++++++++++++++++++++++++%++++++++++++++++++++++++++++++++++++++++++++++++++++++++++++++++++++++++++++++++++&&&&&&@@@@@......",
"......++++++######++++++++++++++++++++++++++++++++++++++++++++++++++++++++++++++++++++++++++++++++++++++++++++++++++++++++++++++++++++%++++++++++++++++++++++++++++++++++++++++++++++++++++++++++++++++++++++++++++++++++&&&&&&@@@@@......",
"......++++++######++++++++++++++++++++++++++++++++++++++++++++++++++++++++++++++++++++++++++++++++++++++++++++++++++++++++++++++++++++%++++++++++++++++++++++++++++++++++++++++++++++++++++++++++++++++++++++++++++++++++&&&&&&@@@@@......",
"......++++++######++++++++++++++++++++++++++++++++++++++++++++++++++++++++++++++++++++++++++++++++++++++++++++++++++++++++++++++++++++%++++++++++++++++++++++++++++++++++++++++++++++++++++++++++++++++++++++++++++++++++&&&&&&@@@@@......",
"......++++++######++++++++++++++++++++++++++++++++++++++++++++++++++++++++++++++++++++++++++++++++++++++++++++++++++++++++++++++++++++%++++++++++++++++++++++++++++++++++++++++++++++++++++++++++++++++++++++++++++++++++&&&&&&@@@@@......",
"......++++++######+++++++++++++++++++++++++++++++++++++++++++++++++++++++++++++++++++++***=++++++++++$***$++++++-**-++++++++++++++++++%++++++++++***=++++++++++++++++++++++++++++++++++++++++++++++++++++++++++++++++++++&&&&&&@@@@@......",
"......++++++######+++++++++++++++++++++++++++++++++++++++++++++++++++++++++++++++++++++;;;>++++++++++*;;;*++++++,;;,++++++++++++++++++%++++++++++;;;>++++++++++++++++++++++++++++++++++++++++++++++++++++++++++++++++++++&&&&&&@@@@@......",
"......++++++######+++++++++++++++++++++++++++++++++++++++++++++++++++++++++++++++++*>>>;;;>++++++++++*;;;*++++++,;;,++++++++++++++++++%++++++*>>>;;;>++++++++++++++++++++++++++++++++++++++++++++++++++++++++++++++++++++&&&&&&@@@@@......",
"......++++++######+++++++++++++++++++++++++++++++++++++++++++++++++++++++++++++++++>;;;;;;>++++++++++*;;;*++++++,;;,++++++++++++++++++%++++++>;;;;;;>++++++++++++++++++++++++++++++++++++++++++++++++++++++++++++++++++++&&&&&&@@@@@......",
"......++++++######+++++++++++++++++++++++++++++++++++++++++++++++++++++++++++++++++>;;;;;;>++++++++++*;;;*++++++,;;,++++++++++++++++++%++++++>;;;;;;>++++++++++++++++++++++++++++++++++++++++++++++++++++++++++++++++++++&&&&&&@@@@@......",
"......++++++######+++++++++++++++++++++++++++++++++++++++++++++++++++++++++++++++++>;;;;;;>++++++++++*;;;*++++++,;;,++++++++++++++++++%++++++>;;;;;;>++++++++++++++++++++++++++++++++++++++++++++++++++++++++++++++++++++&&&&&&@@@@@......",
"......++++++######+++++++++++++++++++++++++++++++++++++++++++++++++++++++++++++++++++++;;;>++++++++++*;;;*++++++,;;,++++++,;;;;;;*++++%++++++++++;;;>++++++++++++++++++++++++++++++++++++++++++++++++++++++++++++++++++++&&&&&&@@@@@......",
"......+++++++++++++++++++++++++++++++++++++++++++++++++++++++++++++++++++++++++++++++++;;;>++++++++++*;;;*++++++,;;,++++=*';;;;;;>*+++%++++++++++;;;>++++++++++++++++++++++++++++++++++++++++++++++++++++++++++++++++++++&&&&&&@@@@@......",
"......+++++++++++++++++++++++++++++++++++++++++++++++++++++++++++++++++++++++++++++++++;;;>++++++++++*;;;*++++++,;;,++++>;;;;;;;;;;+++%++++++++++;;;>++++++++++++++++++++++++++++++++++++++++++++++++++++++++++++++++++++&&&&&&@@@@@......",
"......+++++++++++++++++++++++++++++++++++++++++++++++++++++++++++++++++++++++++++++++++;;;>++++++++++*;;;*++++++,;;,++=>,;)>>>>>>!;>~+%++++++++++;;;>++++++++++++++++++++++++++++++++++++++++++++++++++++++++++++++++++++&&&&&&@@@@@......",
"......+++++++++++++++++++++++++++++++++++++++++++++++++++++++++++++++++++++++++++++++++;;;>++++++++++*;;;*++++++,;;,++*;;;*++++++,;;,+%++++++++++;;;>++++++++++++++++++++++++++++++++++++++++++++++++++++++++++++++++++++&&&&&&@@@@@......",
"......+++++++++++++++++++++++++++++++++++++++++++++++++++++++++++++++++++++++++++++++++;;;>++++++++++*;;;*++++++,;;,++*;;;',+++++-**-+%++++++++++;;;>++++++++++++++++++++++++++++++++++++++++++++++++++++++++++++++++++++&&&&&&@@@@@......",
"......+++++++++++++++++++++++++++++++++++++++++++++++++++++++++++++++++++++++++++++++++;;;>++++++++++*;;;*++++++,;;,++*;;;;;++++++++++%++++++++++;;;>++++++++++++++++++++++++++++++++++++++++++++++++++++++++++++++++++++&&&&&&@@@@@......",
"......+++++++++++++++++++++++++++++++++++++++++++++++++++++++++++++++++++++++++++++++++;;;>++++++++++*;;;*++++++,;;,++$*);;;,,,,,,,+++%++++++++++;;;>++++++++++++++++++++++++++++++++++++++++++++++++++++++++++++++++++++&&&&&&@@@@@......",
"......+++++++++++++++++++++++++++++++++++++++++++++++++++++++++++++++++++++++++++++++++;;;>++++++++++*;;;*++++++,;;,++++>;;;;;;;;;;+++%++++++++++;;;>++++++++++++++++++++++++++++++++++++++++++++++++++++++++++++++++++++&&&&&&@@@@@......",
"......+++++++++++++++++++++++++++++++++++++++++++++++++++++++++++++++++++++++++++++++++;;;>++++++++++*;;;*++++++,;;,+++++++++++>;;;;,+%++++++++++;;;>++++++++++++++++++++++++++++++++++++++++++++++++++++++++++++++++++++&&&&&&@@@@@......",
"......+++++++++++++++++++++++++++++++++++++++++++++++++++++++++++++++++++++++++++++++++;;;>++++++++++-,!;>*+++=*';,{++$***$++++~,];;,+%++++++++++;;;>++++++++++++++++++++++++++++++++++++++++++++++++++++++++++++++++++++&&&&&&@@@@@......",
"......+++++++++++++++++++++++++++++++++++++++++++++++++++++++++++++++++++++++++++++++++;;;>++++++++++++>;;;+++>;;;++++*;;;*++++++,;;,+%++++++++++;;;>++++++++++++++++++++++++++++++++++++++++++++++++++++++++++++++++++++&&&&&&@@@@@......",
"......+++++++++++++++++++++++++++++++++++++++++++++++++++++++++++++++++++++++++++++++++;;;>++++++++++++*>!;>>>,;)>++++=>,;)>>>>>>!;>~+%++++++++++;;;>++++++++++++++++++++++++++++++++++++++++++++++++++++++++++++++++++++&&&&&&@@@@@......",
"......+++++++++++++++++++++++++++++++++++++++++++++++++++++++++++++++++++++++++++++++++;;;>++++++++++++++,;;;;;;*+++++++>;;;;;;;;;;+++%++++++++++;;;>++++++++++++++++++++++++++++++++++++++++++++++++++++++++++++++++++++&&&&&&@@@@@......",
"......+++++++++++++++++++++++++++++++++++++++++++++++++++++++++++++++++++++++++++++++++;;;>++++++++++++++-*;;;)*$+++++++=*';;;;;;>*+++%++++++++++;;;>++++++++++++++++++++++++++++++++++++++++++++++++++++++++++++++++++++&&&&&&@@@@@......",
"......+++++++++++++++++++++++++++++++++++++++++++++++++++++++++++++++++++++++++++++++++;;;>++++++++++++++++;;;>+++++++++++,;;;;;;*++++%++++++++++;;;>++++++++++++++++++++++++++++++++++++++++++++++++++++++++++++++++++++&&&&&&@@@@@......",
"......++++++++++++++++++++++++++++++++++++++++++++++++++++++++++++++++++++++++++++++++++++++++++++++++++++++++++++++++++++++++++++++++%++++++++++++++++++++++++++++++++++++++++++++++++++++++++++++++++++++++++++++++++++&&&&&&@@@@@......",
"......++++++++++++++++++++++++++++++++++++++++++++++++++++++++++++++++++++++++++++++++++++++++++++++++++++++++++++++++++++++++++++++++%++++++++++++++++++++++++++++++++++++++++++++++++++++++++++++++++++++++++++++++++++&&&&&&@@@@@......",
"......++++++++++++++++++++++++++++++++++++++++++++++++++++++++++++++++++++++++++++++++++++++++++++++++++++++++++++++++++++++++++++++++%++++++++++++++++++++++++++++++++++++++++++++++++++++++++++++++++++++++++++++++++++&&&&&&@@@@@......",
"......++++++++++++++++++++++++++++++++++++++++++++++++++++++++++++++++++++++++++++++++++++++++++++++++++++++++++++++++++++++++++++++++%++++++++++++++++++++++++++++++++++++++++++++++++++++++++++++++++++++++++++++++++++&&&&&&@@@@@......",
"......++++++++++++++++++++++++++++++++++++++++++++++++++++++++++++++++++++++++++++++++++++++++++++++++++++++++++++++++++++++++++++++++%++++++++++++++++++++++++++++++++++++++++++++++++++++++++++++++++++++++++++++&&&&&&&&&&&&@@@@@......",
"......++++++++++++++++++++++++++++++++++++++++++++++++++++++++++++++++++++++++++++++++++++++++++++++++++++++++++++++++++++++++++++++++%++++++++++++++++++++++++++++++++++++++++++++++++++++++++++++++++++++++++++++&&&&&&&&&&&&@@@@@......",
"......++++++++++++++++++++++++++++++++++++++++++++++++++++++++++++++++++++++++++++++++++++++++++++++++++++++++++++++++++++++++++++++++%++++++++++++++++++++++++++++++++++++++++++++++++++++++++++++++++++++++++++++&&&&&&&&&&&&@@@@@......",
"......++++++++++++++++++++++++++++++++++++++++++++++++++++++++++++++++++++++++++++++++++++++++++++++++++++++++++++++++++++++++++++++++%++++++++++++++++++++++++++++++++++++++++++++++++++++++++++++++++++++++&&&&&&&&&&&&&&&&&&@@@@@......",
"......++++++++++++++++++++++++++++++++++++++++++++++++++++++++++++++++++++++++++++++++++++++++++++++++++++++++++++++++++++++++++++++++%++++++++++++++++++++++++++++++++++++++++++++++++++++++++++++++++++++++&&&&&&&&&&&&&&&&&&@@@@@......",
"......++++++++++++++++++++++++++++++++++++++++++++++++++++++++++++++++++++++++++++++++++++++++++++++++++++++++++++++++++++++++++++++++%++++++++++++++++++++++++++++++++++++++++++++++++++++++++++++++++++++++&&&&&&&&&&&&&&&&&&@@@@@......",
"......+++++++++++++++++++++++++++++++++++++++++++++++++++++++++++++++++++++++++++++++++++++++++++++++++++++++++&&&&&&&&&&&&&&&&&&&&&&&^&&&&&&&&&&&&&&&&&&&&&&&&&&&&&&&&&&&&&&&&&&&&&&&&&&&&&&&&&&&&&&&&&&&&&&&&&&&&&&&&&&&&&&&&@@@@@......",
"......+++++++++++++++++++++++++++++++++++++++++++++++++++++++++++++++++++++++++++++++++++++++++++++++++++++++++&&&&&&&&&&&&&&&&&&&&&&&&&&&&&&&&&&&&&&&&&&&&&&&&&&&&&&&&&&&&&&&&&&&&&&&&&&&&&&&&&&&&&&&&&&&&&&&&&&&&&&&&&&&&&&&&@@@@@......",
"......+++++++++++++++++++++++++++++++++++++++++++++++++++++++++++++++++++++++++++++++++++++++++++++++++++++++++&&&&&&&&&&&&&&&&&&&&&&&&&&&&&&&&&&&&&&&&&&&&&&&&&&&&&&&&&&&&&&&&&&&&&&&&&&&&&&&&&&&&&&&&&&&&&&&&&&&&&&&&&&&&&&&&@@@@@......",
"......@@@@@@@@@@@@@@@@@@@@@@@@@@@@@@@@@@@@@@@@@@@@@@@@@@@@@@@@@@@@@@@@@@@@@@@@@@@@@@@@@@@@@@@@@@@@@@@@@@@@@@@@@@@@@@@@@@@@@@@@@@@@@@@@@@@@@@@@@@@@@@@@@@@@@@@@@@@@@@@@@@@@@@@@@@@@@@@@@@@@@@@@@@@@@@@@@@@@@@@@@@@@@@@@@@@@@@@@@@@@@@......",
"......@@@@@@@@@@@@@@@@@@@@@@@@@@@@@@@@@@@@@@@@@@@@@@@@@@@@@@@@@@@@@@@@@@@@@@@@@@@@@@@@@@@@@@@@@@@@@@@@@@@@@@@@@@@@@@@@@@@@@@@@@@@@@@@@@@@@@@@@@@@@@@@@@@@@@@@@@@@@@@@@@@@@@@@@@@@@@@@@@@@@@@@@@@@@@@@@@@@@@@@@@@@@@@@@@@@@@@@@@@@@@@......",
"......@@@@@@@@@@@@@@@@@@@@@@@@@@@@@@@@@@@@@@@@@@@@@@@@@@@@@@@@@@@@@@@@@@@@@@@@@@@@@@@@@@@@@@@@@@@@@@@@@@@@@@@@@@@@@@@@@@@@@@@@@@@@@@@@@@@@@@@@@@@@@@@@@@@@@@@@@@@@@@@@@@@@@@@@@@@@@@@@@@@@@@@@@@@@@@@@@@@@@@@@@@@@@@@@@@@@@@@@@@@@@@......",
"..........................................................................................................................................................................................................................................",
"..........................................................................................................................................................................................................................................",
".........................................................................................................................................................................................................................................."};
