/* XPM */
static char * C:\Users\angel\OneDrive\Desktop\MIEIC\2nd_year\1st_semester\LCOM\MINIX_LCOM\shared\g08\proj\xpm\start_menu\continue_option_xpm[] = {
"234 61 19 1",
" 	c None",
".	c #FFFFFF",
"+	c #F6DF00",
"@	c #D3A700",
"#	c #FFFF00",
"$	c #DDC700",
"%	c #595252",
"&	c #B7A721",
"*	c #DDC800",
"=	c #D3C000",
"-	c #EED700",
";	c #8E813E",
">	c #766A49",
",	c #A49431",
"'	c #AE9D29",
")	c #E4D000",
"!	c #817643",
"~	c #C1B014",
"{	c #675F4D",
"..........................................................................................................................................................................................................................................",
"..........................................................................................................................................................................................................................................",
"..........................................................................................................................................................................................................................................",
"......++++++++++++++++++++++++++++++++++++++++++++++++++++++++++++++++++++++++++++++++++++++++++++++++++++++++++++++++++++++++++++++++++++++++++++++++++++++++++++++++++++++++++++++++++++++++++++++++++++++++++++++++++++++++@@@@@@......",
"......++++++++++++++++++++++++++++++++++++++++++++++++++++++++++++++++++++++++++++++++++++++++++++++++++++++++++++++++++++++++++++++++++++++++++++++++++++++++++++++++++++++++++++++++++++++++++++++++++++++++++++++++++++++++@@@@@@......",
"......++++++++++++++++++++++++++++++++++++++++++++++++++++++++++++++++++++++++++++++++++++++++++++++++++++++++++++++++++++++++++++++++++++++++++++++++++++++++++++++++++++++++++++++++++++++++++++++++++++++++++++++++++++++++@@@@@@......",
"......++++++###########################################################+++++++++++++++++++++++++++++++++++++++++++++++++++++++++++++++++++++++++++++++++++++++++++++++++++++++++++++++++++++++++++++++++++++++++++++++++++++++@@@@@@......",
"......++++++###########################################################+++++++++++++++++++++++++++++++++++++++++++++++++++++++++++++++++++++++++++++++++++++++++++++++++++++++++++++++++++++++++++++++++++++++++++++++++++++++@@@@@@......",
"......++++++###########################################################+++++++++++++++++++++++++++++++++++++++++++++++++++++++++++++++++++++++++++++++++++++++++++++++++++++++++++++++++++++++++++++++++++++++++++++++++++++++@@@@@@......",
"......++++++#################+++++++++++++++++++++++++++++++++++++++++++++++++++++++++++++++++++++++++++++++++++++++++++++++++++++++++++++++++++++++++++++++++++++++++++++++++++++++++++++++++++++++++++++++++++++++++++++++++@@@@@@......",
"......++++++#################+++++++++++++++++++++++++++++++++++++++++++++++++++++++++++++++++++++++++++++++++++++++++++++++++++++++++++++++++++++++++++++++++++++++++++++++++++++++++++++++++++++++++++++++++++++++++++++++++@@@@@@......",
"......++++++#################+++++++++++++++++++++++++++++++++++++++++++++++++++++++++++++++++++++++++++++++++++++++++++++++++++++++++++++++++++++++++++++++++++++++++++++++++++++++++++++++++++++++++++++++++++++++++++++++++@@@@@@......",
"......++++++###########+++++++++++++++++++++++++++++++++++++++++++++++++++++++++++++++++++++++++++++++++++++++++++++++++++++++++++++++++++++++++++++++++++++++++++++++++++++++++++++++++++++++++++++++++++++++++++++++++++++++@@@@@@......",
"......++++++###########+++++++++++++++++++++++++++++++++++++++++++++++++++++++++++++++++++++++++++++++++++++++++++++++++++++++++++++++++++++++++++++++++++++++++++++++++++++++++++++++++++++++++++++++++++++++++++++++++++++++@@@@@@......",
"......++++++###########+++++++++++++++++++++++++++++++++++++++++++++++++++++++++++++++++++++++++++++++++++++++++++++++++++++++++++++++++++++++++++++++++++++++++++++++++++++++++++++++++++++++++++++++++++++++++++++++++++++++@@@@@@......",
"......++++++######+++++++++++++++++++++++++++++++++++++++++++++++++++++++++++++++++++++++++++++++++++++++++++++++++++++++++++++++++++++++++++++++++++++++++++++++++++++++++++++++++++++++++++++++++++++++++++++++++++++++$$$$$$@@@@@......",
"......++++++######+++++++++++++++++++++++++++++++++++++++++++++++++++++++++++++++++++++++++++++++++++++++++++++++++++++++++++++++++++++++++++++++++++++++++++++++++++++++++++++++++++++++++++++++++++++++++++++++++++++++$$$$$$@@@@@......",
"......++++++######+++++++++++++++++++++++++++++++++++++++++++++++++++++++++++++++++++++++++++++++++++++++++++++++++++++++++++++++++++++++++++++++++++++++++++++++++++++++++++++++++++++++++++++++++++++++++++++++++++++++$$$$$$@@@@@......",
"......++++++######+++++++++++++++++++++++++++++++++++++++++++++++++++++++++++++++++++++++++++++++++++++++++++++++++++++++++++++++++++++++++++++++++++++++++++++++++++++++++++++++++++++++++++++++++++++++++++++++++++++++$$$$$$@@@@@......",
"......++++++######++++++++++++++++++++++++++++++++++++++++++++++++++++++++++++++++++++++++++++++++++++++++++++++++++++++++++%%%&+++++++++++++++++++++++++++++++++++++++++++++++++++++++++++++++++++++++++++++++++++++++++$$$$$$@@@@@......",
"......++++++######++++++++++++++++++++++++++++++++++*======-+++++++++++++++++++++++++++++++++++++++++++++*==*+++++++++++++++%%%&+++++++++++++++++++++++++++++++++++++++++++++++++++++++++++++++++++++++++++++++++++++++++$$$$$$@@@@@......",
"......++++++######++++++++++++++++++++++++++++++++++;%%%%%%=+++++++++++++++++++++++++++++++++++++++++++++;%%;+++++++++++++++%%%&+++++++++++++++++++++++++++++++++++++++++++++++++++++++++++++++++++++++++++++++++++++++++$$$$$$@@@@@......",
"......++++++######++++++++++++++++++++++++++++++++=&>%%%%%%,&++++++++++++++++++++++++++++++++++++++++++++;%%;+++++++++++++++&&&=+++++++++++++++++++++++++++++++++++++++++++++++++++++++++++++++++++++++++++++++++++++++++$$$$$$@@@@@......",
"......++++++######++++++++++++++++++++++++++++++++&%%%%%%%%%%++++++++++++++++++++++++++++++++++++++++++++;%%;++++++++++++++++++++++++++++++++++++++++++++++++++++++++++++++++++++++++++++++++++++++++++++++++++++++++++++$$$$$$@@@@@......",
"......++++++######++++++++++++++++++++++++++++++*;>%%%===,%%%;'++++++++++++++++++++++++++++++++++++++++++;%%;++++++++++++++++++++++++++++++++++++++++++++++++++++++++++++++++++++++++++++++++++++++++++++++++++++++++++++$$$$$$@@@@@......",
"......++++++######++++++++++++++++++++++++++++++=%%%%%+++&%%%%;++++++++++++++++++++++++++++++++++++++++++;%%;++++++++++++++++++++++++++++++++++++++++++++++++++++++++++++++++++++++++++++++++++++++++++++++++++++++++++++$$$$$$@@@@@......",
"......++++++######++++++++++++++++++++++++++++++=%%%=+++++++++++++++++;%%%%%%=+++++=%%%=+%%%%%=++++++++&%%%%%%%%%%++++++&%%%%%%&++++++++=%%%=+%%%%%=+++++=%%%=++++++;%%;+++++++;%%%%%%=++++++++++++++++++++++++++++++++++$$$$$$@@@@@......",
"......++++++++++++++++++++++++++++++++++++++++++=%%%=+++++++++++++++)=!%%%%%%&=++++=%%%&=%%%%%&=+++++++&%%%%%%%%%%++++++&%%%%%%&++++++++=%%%&=%%%%%&=++++=%%%=++++++;%%;+++++)=!%%%%%%&=+++++++++++++++++++++++++++++++++$$$$$$@@@@@......",
"......++++++++++++++++++++++++++++++++++++++++++=%%%=+++++++++++++++&%%%%%%%%%%++++=%%%%%%%%%%%%+++++++&%%%%%%%%%%++++++&%%%%%%&++++++++=%%%%%%%%%%%%++++=%%%=++++++;%%;+++++&%%%%%%%%%%+++++++++++++++++++++++++++++++++$$$$$$@@@@@......",
"......++++++++++++++++++++++++++++++++++++++++++=%%%=+++++++++++++)&;%%%&&&;%%%&~++=%%%%%&&&;%%%&~+++++=&>%%>&&&&&++++++=&&&%%%&++++++++=%%%%%&&&;%%%&~++=%%%=++++++;%%;+++)&;%%%&&&;%%%&~+++++++++++++++++++++++++++++++$$$$$$@@@@@......",
"......++++++++++++++++++++++++++++++++++++++++++=%%%=+++++++++++++=%%%%%+++&%%%%;++=%%%%%+++&%%%%;+++++++;%%;+++++++++++++++%%%&++++++++=%%%%%+++&%%%%;++=%%%=++++++;%%;+++=%%%%%+++&%%%%;+++++++++++++++++++++++++++++++$$$$$$@@@@@......",
"......++++++++++++++++++++++++++++++++++++++++++=%%%=+++++++++++++=%%%&=+++)=!%%;++=%%%&=+++)=!%%;+++++++;%%;+++++++++++++++%%%&++++++++=%%%&=+++)=!%%;++=%%%=++++++;%%;+++=%%%&=+++)=!%%;+++++++++++++++++++++++++++++++$$$$$$@@@@@......",
"......++++++++++++++++++++++++++++++++++++++++++=%%%=+++++++++++++=%%%=++++++;%%;++=%%%=++++++;%%;+++++++;%%;+++++++++++++++%%%&++++++++=%%%=++++++;%%;++=%%%=++++++;%%;+++=%%%=++++++;%%;+++++++++++++++++++++++++++++++$$$$$$@@@@@......",
"......++++++++++++++++++++++++++++++++++++++++++=%%%=+++++++++++++=%%%=++++++;%%;++=%%%=++++++;%%;+++++++;%%;+++++++++++++++%%%&++++++++=%%%=++++++;%%;++=%%%=++++++;%%;+++=%%%!;;;;;;{%%;+++++++++++++++++++++++++++++++$$$$$$@@@@@......",
"......++++++++++++++++++++++++++++++++++++++++++=%%%=+++++++++++++=%%%=++++++;%%;++=%%%=++++++;%%;+++++++;%%;+++++++++++++++%%%&++++++++=%%%=++++++;%%;++=%%%=++++++;%%;+++=%%%%%%%%%%%%%;+++++++++++++++++++++++++++++++$$$$$$@@@@@......",
"......++++++++++++++++++++++++++++++++++++++++++=%%%=+++++++++++++=%%%=++++++;%%;++=%%%=++++++;%%;+++++++;%%;+++++++++++++++%%%&++++++++=%%%=++++++;%%;++=%%%=++++++;%%;+++=%%%%%%%%%%%%%;+++++++++++++++++++++++++++++++$$$$$$@@@@@......",
"......++++++++++++++++++++++++++++++++++++++++++=%%%&=+++)====*+++=%%%&=+++)=!%%;++=%%%=++++++;%%;+++++++;%%;+++++++++++++++%%%&++++++++=%%%=++++++;%%;++=%%%&=+++)=!%%;+++=%%%%%;;;;;;;;'+++++++++++++++++++++++++++++++$$$$$$@@@@@......",
"......++++++++++++++++++++++++++++++++++++++++++=%%%%%+++&%%%%;+++=%%%%%+++&%%%%;++=%%%=++++++;%%;+++++++;%%;+++++++++++++++%%%&++++++++=%%%=++++++;%%;++=%%%%%+++&%%%%;+++=%%%%%++++++++++++++++++++++++++++++++++++++++$$$$$$@@@@@......",
"......++++++++++++++++++++++++++++++++++++++++++)&;%%%&&&;%%%&~+++)&;%%%&&&;%%%&~++=%%%=++++++;%%;+++++++;%%>&&&&&++++++=&&&%%%;&&&+++++=%%%=++++++;%%;++)&;%%%&&&;%%%%;+++)&;%%%&&&&&&&+++++++++++++++++++++++++++++++++$$$$$$@@@@@......",
"......++++++++++++++++++++++++++++++++++++++++++++&%%%%%%%%%%+++++++&%%%%%%%%%%++++=%%%=++++++;%%;+++++++;%%%%%%%%++++++&%%%%%%%%%%+++++=%%%=++++++;%%;++++&%%%%%%%%%%%;+++++&%%%%%%%%%%+++++++++++++++++++++++++++++++++$$$$$$@@@@@......",
"......++++++++++++++++++++++++++++++++++++++++++++)=!%%%%%%&=+++++++)=!%%%%%%&=++++=%%%=++++++;%%;+++++++*=%%%%%%%++++++&%%%%%%%%%%+++++=%%%=++++++;%%;++++)=!%%%%,=!%%;+++++)=!%%%%%%&=+++++++++++++++++++++++++++++++++$$$$$$@@@@@......",
"......++++++++++++++++++++++++++++++++++++++++++++++;%%%%%%=++++++++++;%%%%%%=+++++=%%%=++++++;%%;+++++++++%%%%%%%++++++&%%%%%%%%%%+++++=%%%=++++++;%%;++++++;%%%%&+;%%;+++++++;%%%%%%=++++++++++++++++++++++++++++++++++$$$$$$@@@@@......",
"......+++++++++++++++++++++++++++++++++++++++++++++++++++++++++++++++++++++++++++++++++++++++++++++++++++++++++++++++++++++++++++++++++++++++++++++++++++++++++++++++++++++++++++++++++++++++++++++++++++++++++++++++++++$$$$$$@@@@@......",
"......+++++++++++++++++++++++++++++++++++++++++++++++++++++++++++++++++++++++++++++++++++++++++++++++++++++++++++++++++++++++++++++++++++++++++++++++++++++++++++++++++++++++++++++++++++++++++++++++++++++++++++++++++++$$$$$$@@@@@......",
"......+++++++++++++++++++++++++++++++++++++++++++++++++++++++++++++++++++++++++++++++++++++++++++++++++++++++++++++++++++++++++++++++++++++++++++++++++++++++++++++++++++++++++++++++++++++++++++++++++++++++++++++++++++$$$$$$@@@@@......",
"......+++++++++++++++++++++++++++++++++++++++++++++++++++++++++++++++++++++++++++++++++++++++++++++++++++++++++++++++++++++++++++++++++++++++++++++++++++++++++++++++++++++++++++++++++++++++++++++++++++++++++++++++++++$$$$$$@@@@@......",
"......+++++++++++++++++++++++++++++++++++++++++++++++++++++++++++++++++++++++++++++++++++++++++++++++++++++++++++++++++++++++++++++++++++++++++++++++++++++++++++++++++++++++++++++++++++++++++++++++++++++++++++++$$$$$$$$$$$$@@@@@......",
"......+++++++++++++++++++++++++++++++++++++++++++++++++++++++++++++++++++++++++++++++++++++++++++++++++++++++++++++++++++++++++++++++++++++++++++++++++++++++++++++++++++++++++++++++++++++++++++++++++++++++++++++$$$$$$$$$$$$@@@@@......",
"......+++++++++++++++++++++++++++++++++++++++++++++++++++++++++++++++++++++++++++++++++++++++++++++++++++++++++++++++++++++++++++++++++++++++++++++++++++++++++++++++++++++++++++++++++++++++++++++++++++++++++++++$$$$$$$$$$$$@@@@@......",
"......+++++++++++++++++++++++++++++++++++++++++++++++++++++++++++++++++++++++++++++++++++++++++++++++++++++++++++++++++++++++++++++++++++++++++++++++++++++++++++++++++++++++++++++++++++++++++++++++++++++++$$$$$$$$$$$$$$$$$$@@@@@......",
"......+++++++++++++++++++++++++++++++++++++++++++++++++++++++++++++++++++++++++++++++++++++++++++++++++++++++++++++++++++++++++++++++++++++++++++++++++++++++++++++++++++++++++++++++++++++++++++++++++++++++$$$$$$$$$$$$$$$$$$@@@@@......",
"......+++++++++++++++++++++++++++++++++++++++++++++++++++++++++++++++++++++++++++++++++++++++++++++++++++++++++++++++++++++++++++++++++++++++++++++++++++++++++++++++++++++++++++++++++++++++++++++++++++++++$$$$$$$$$$$$$$$$$$@@@@@......",
"......+++++++++++++++++++++++++++++++++++++++++++++++++++++++++++++++++++++++++++++++++++++++++++++++++++++++++$$$$$$$$$$$$$$$$$$$$$$$$$$$$$$$$$$$$$$$$$$$$$$$$$$$$$$$$$$$$$$$$$$$$$$$$$$$$$$$$$$$$$$$$$$$$$$$$$$$$$$$$$$$$$$$$@@@@@......",
"......+++++++++++++++++++++++++++++++++++++++++++++++++++++++++++++++++++++++++++++++++++++++++++++++++++++++++$$$$$$$$$$$$$$$$$$$$$$$$$$$$$$$$$$$$$$$$$$$$$$$$$$$$$$$$$$$$$$$$$$$$$$$$$$$$$$$$$$$$$$$$$$$$$$$$$$$$$$$$$$$$$$$$@@@@@......",
"......+++++++++++++++++++++++++++++++++++++++++++++++++++++++++++++++++++++++++++++++++++++++++++++++++++++++++$$$$$$$$$$$$$$$$$$$$$$$$$$$$$$$$$$$$$$$$$$$$$$$$$$$$$$$$$$$$$$$$$$$$$$$$$$$$$$$$$$$$$$$$$$$$$$$$$$$$$$$$$$$$$$$$@@@@@......",
"......@@@@@@@@@@@@@@@@@@@@@@@@@@@@@@@@@@@@@@@@@@@@@@@@@@@@@@@@@@@@@@@@@@@@@@@@@@@@@@@@@@@@@@@@@@@@@@@@@@@@@@@@@@@@@@@@@@@@@@@@@@@@@@@@@@@@@@@@@@@@@@@@@@@@@@@@@@@@@@@@@@@@@@@@@@@@@@@@@@@@@@@@@@@@@@@@@@@@@@@@@@@@@@@@@@@@@@@@@@@@@@......",
"......@@@@@@@@@@@@@@@@@@@@@@@@@@@@@@@@@@@@@@@@@@@@@@@@@@@@@@@@@@@@@@@@@@@@@@@@@@@@@@@@@@@@@@@@@@@@@@@@@@@@@@@@@@@@@@@@@@@@@@@@@@@@@@@@@@@@@@@@@@@@@@@@@@@@@@@@@@@@@@@@@@@@@@@@@@@@@@@@@@@@@@@@@@@@@@@@@@@@@@@@@@@@@@@@@@@@@@@@@@@@@@......",
"......@@@@@@@@@@@@@@@@@@@@@@@@@@@@@@@@@@@@@@@@@@@@@@@@@@@@@@@@@@@@@@@@@@@@@@@@@@@@@@@@@@@@@@@@@@@@@@@@@@@@@@@@@@@@@@@@@@@@@@@@@@@@@@@@@@@@@@@@@@@@@@@@@@@@@@@@@@@@@@@@@@@@@@@@@@@@@@@@@@@@@@@@@@@@@@@@@@@@@@@@@@@@@@@@@@@@@@@@@@@@@@......",
"..........................................................................................................................................................................................................................................",
"..........................................................................................................................................................................................................................................",
".........................................................................................................................................................................................................................................."};
