/* XPM */
static char * C:\Users\angel\OneDrive\Desktop\MIEIC\2nd_year\1st_semester\LCOM\MINIX_LCOM\shared\g08\proj\xpm\leaderboard_option_xpm[] = {
"234 61 19 1",
" 	c None",
".	c #FFFFFF",
"+	c #00B200",
"@	c #007500",
"#	c #00D100",
"$	c #009100",
"%	c #00AD00",
"&	c #009B00",
"*	c #00A100",
"=	c #595252",
"-	c #28713F",
";	c #007E33",
">	c #008A24",
",	c #396944",
"'	c #00842D",
")	c #00A700",
"!	c #00901B",
"~	c #46624A",
"{	c #505B4D",
"..........................................................................................................................................................................................................................................",
"..........................................................................................................................................................................................................................................",
"..........................................................................................................................................................................................................................................",
"......++++++++++++++++++++++++++++++++++++++++++++++++++++++++++++++++++++++++++++++++++++++++++++++++++++++++++++++++++++++++++++++++++++++++++++++++++++++++++++++++++++++++++++++++++++++++++++++++++++++++++++++++++++++++@@@@@@......",
"......++++++++++++++++++++++++++++++++++++++++++++++++++++++++++++++++++++++++++++++++++++++++++++++++++++++++++++++++++++++++++++++++++++++++++++++++++++++++++++++++++++++++++++++++++++++++++++++++++++++++++++++++++++++++@@@@@@......",
"......++++++++++++++++++++++++++++++++++++++++++++++++++++++++++++++++++++++++++++++++++++++++++++++++++++++++++++++++++++++++++++++++++++++++++++++++++++++++++++++++++++++++++++++++++++++++++++++++++++++++++++++++++++++++@@@@@@......",
"......++++++###########################################################+++++++++++++++++++++++++++++++++++++++++++++++++++++++++++++++++++++++++++++++++++++++++++++++++++++++++++++++++++++++++++++++++++++++++++++++++++++++@@@@@@......",
"......++++++###########################################################+++++++++++++++++++++++++++++++++++++++++++++++++++++++++++++++++++++++++++++++++++++++++++++++++++++++++++++++++++++++++++++++++++++++++++++++++++++++@@@@@@......",
"......++++++###########################################################+++++++++++++++++++++++++++++++++++++++++++++++++++++++++++++++++++++++++++++++++++++++++++++++++++++++++++++++++++++++++++++++++++++++++++++++++++++++@@@@@@......",
"......++++++#################+++++++++++++++++++++++++++++++++++++++++++++++++++++++++++++++++++++++++++++++++++++++++++++++++++++++++++++++++++++++++++++++++++++++++++++++++++++++++++++++++++++++++++++++++++++++++++++++++@@@@@@......",
"......++++++#################+++++++++++++++++++++++++++++++++++++++++++++++++++++++++++++++++++++++++++++++++++++++++++++++++++++++++++++++++++++++++++++++++++++++++++++++++++++++++++++++++++++++++++++++++++++++++++++++++@@@@@@......",
"......++++++#################+++++++++++++++++++++++++++++++++++++++++++++++++++++++++++++++++++++++++++++++++++++++++++++++++++++++++++++++++++++++++++++++++++++++++++++++++++++++++++++++++++++++++++++++++++++++++++++++++@@@@@@......",
"......++++++###########+++++++++++++++++++++++++++++++++++++++++++++++++++++++++++++++++++++++++++++++++++++++++++++++++++++++++++++++++++++++++++++++++++++++++++++++++++++++++++++++++++++++++++++++++++++++++++++++++++++++@@@@@@......",
"......++++++###########+++++++++++++++++++++++++++++++++++++++++++++++++++++++++++++++++++++++++++++++++++++++++++++++++++++++++++++++++++++++++++++++++++++++++++++++++++++++++++++++++++++++++++++++++++++++++++++++++++++++@@@@@@......",
"......++++++###########+++++++++++++++++++++++++++++++++++++++++++++++++++++++++++++++++++++++++++++++++++++++++++++++++++++++++++++++++++++++++++++++++++++++++++++++++++++++++++++++++++++++++++++++++++++++++++++++++++++++@@@@@@......",
"......++++++######+++++++++++++++++++++++++++++++++++++++++++++++++++++++++++++++++++++++++++++++++++++++++++++++++++++++++++++++++++++++++++++++++++++++++++++++++++++++++++++++++++++++++++++++++++++++++++++++++++++++$$$$$$@@@@@......",
"......++++++######+++++++++++++++++++++++++++++++++++++++++++++++++++++++++++++++++++++++++++++++++++++++++++++++++++++++++++++++++++++++++++++++++++++++++++++++++++++++++++++++++++++++++++++++++++++++++++++++++++++++$$$$$$@@@@@......",
"......++++++######+++++++++++++++++++++++++++++++++++++++++++++++++++++++++++++++++++++++++++++++++++++++++++++++++++++++++++++++++++++++++++++++++++++++++++++++++++++++++++++++++++++++++++++++++++++++++++++++++++++++$$$$$$@@@@@......",
"......++++++######+++++++++++++++++++++++++++++++++++++++++++++++++++++++++++++++++++++++++++++++++++++++++++++++++++++++++++++++++++++++++++++++++++++++++++++++++++++++++++++++++++++++++++++++++++++++++++++++++++++++$$$$$$@@@@@......",
"......++++++######++++%&&&%+++++++++++++++++++++++++++++++++++++++++++++++++++++++++++*&&*+++++++++++++++++++++++++++++++++++++%&&&&&&&&&&%+++++++++++++++++++++++++++++++++++++++++++++++++++++++++++++++++++++*&&*+++++$$$$$$@@@@@......",
"......++++++######++++&===&+++++++++++++++++++++++++++++++++++++++++++++++++++++++++++-==-+++++++++++++++++++++++++++++++++++++&==========&+++++++++++++++++++++++++++++++++++++++++++++++++++++++++++++++++++++-==-+++++$$$$$$@@@@@......",
"......++++++######++++&===&+++++++++++++++++++++++++++++++++++++++++++++++++++++++++++-==-+++++++++++++++++++++++++++++++++++++&==========;>++++++++++++++++++++++++++++++++++++++++++++++++++++++++++++++++++++-==-+++++$$$$$$@@@@@......",
"......++++++######++++&===&+++++++++++++++++++++++++++++++++++++++++++++++++++++++++++-==-+++++++++++++++++++++++++++++++++++++&============++++++++++++++++++++++++++++++++++++++++++++++++++++++++++++++++++++-==-+++++$$$$$$@@@@@......",
"......++++++######++++&===&+++++++++++++++++++++++++++++++++++++++++++++++++++++++++++-==-+++++++++++++++++++++++++++++++++++++&===>&&&&&&,=-'++++++++++++++++++++++++++++++++++++++++++++++++++++++++++++++++++-==-+++++$$$$$$@@@@@......",
"......++++++######++++&===&+++++++++++++++++++++++++++++++++++++++++++++++++++++++++++-==-+++++++++++++++++++++++++++++++++++++&===&++++++-==-++++++++++++++++++++++++++++++++++++++++++++++++++++++++++++++++++-==-+++++$$$$$$@@@@@......",
"......++++++######++++&===&+++++++++++++++++-======&+++++++>========&++++++++++-====>+-==-++++++-======&++++++&===&+========-++&===&++++++-==-+++++++-======&+++++++>========&++++++&===&+========-++++++-====>+-==-+++++$$$$$$@@@@@......",
"......++++++######++++&===&+++++++++++++++)&,======>&++++++>========>&+++++++)&,====;&,==-++++)&,======>&+++++&===>&========-++&===&++++++-==-+++++)&,======>&++++++>========>&+++++&===>&========-++++)&,====;&,==-+++++$$$$$$@@@@@......",
"......++++++++++++++++&===&+++++++++++++++>==========++++++>==========+++++++>===========-++++>==========+++++&=============-++&===&++++++-==-+++++>==========++++++>==========+++++&=============-++++>===========-+++++$$$$$$@@@@@......",
"......++++++++++++++++&===&+++++++++++++)>-===>>>-===>!++++&>>>>>>>>~=>!+++)>-===>>>-====-++)>-===>>>-===>!+++&======~>>>>>>!++&===;>>>>>>~=>!+++)>-===>>>-===>!++++&>>>>>>>>~=>!+++&======~>>>>>>!++)>-===>>>-====-+++++$$$$$$@@@@@......",
"......++++++++++++++++&===&+++++++++++++&=====+++>====-+++++++++++++-==-+++&=====+++>====-++&=====+++>====-+++&======-+++++++++&============+++++&=====+++>====-+++++++++++++-==-+++&======-+++++++++&=====+++>====-+++++$$$$$$@@@@@......",
"......++++++++++++++++&===&+++++++++++++&===>&+++)&,==-++++!--------{==-+++&===>&+++)&,==-++&===>&+++)&,==-+++&=====&*+++++++++&============+++++&===>&+++)&,==-++++!--------{==-+++&=====&*+++++++++&===>&+++)&,==-+++++$$$$$$@@@@@......",
"......++++++++++++++++&===&+++++++++++++&===&++++++-==-++++>===========-+++&===&++++++-==-++&===&++++++-==-+++&=====+++++++++++&============+++++&===&++++++-==-++++>===========-+++&=====+++++++++++&===&++++++-==-+++++$$$$$$@@@@@......",
"......++++++++++++++++&===&+++++++++++++&===,------{==-++*-~===========-+++&===&++++++-==-++&===,------{==-+++&===>&+++++++++++&===>&&&&&&,=-'+++&===&++++++-==-++*-~===========-+++&===>&+++++++++++&===&++++++-==-+++++$$$$$$@@@@@......",
"......++++++++++++++++&===&+++++++++++++&=============-++&=============-+++&===&++++++-==-++&=============-+++&===&++++++++++++&===&++++++-==-+++&===&++++++-==-++&=============-+++&===&++++++++++++&===&++++++-==-+++++$$$$$$@@@@@......",
"......++++++++++++++++&===&+++++++++++++&=============-++&===&++++++-==-+++&===&++++++-==-++&=============-+++&===&++++++++++++&===&++++++-==-+++&===&++++++-==-++&===&++++++-==-+++&===&++++++++++++&===&++++++-==-+++++$$$$$$@@@@@......",
"......++++++++++++++++&===&+++++++++++++&=====--------'++&===&++++++-==-+++&===>&+++)&,==-++&=====--------'+++&===&++++++++++++&===&++++++-==-+++&===>&+++)&,==-++&===&++++++-==-+++&===&++++++++++++&===>&+++)&,==-+++++$$$$$$@@@@@......",
"......++++++++++++++++&===&+++++++++++++&=====+++++++++++&===&++++++-==-+++&=====+++>====-++&=====++++++++++++&===&++++++++++++&===&++++++-==-+++&=====+++>====-++&===&++++++-==-+++&===&++++++++++++&=====+++>====-+++++$$$$$$@@@@@......",
"......++++++++++++++++&===;>>>>>>>>>!+++)>-===>>>>>>>++++&===;>>>>>>~==-+++)>-===>>>-====-++)>-===>>>>>>>+++++&===&++++++++++++&===;>>>>>>~=>!+++)>-===>>>-===>!++&===;>>>>>>~==-+++&===&++++++++++++)>-===>>>-====-+++++$$$$$$@@@@@......",
"......++++++++++++++++&=============-+++++>==========++++&=============-+++++>===========-++++>==========+++++&===&++++++++++++&============+++++++>==========++++&=============-+++&===&++++++++++++++>===========-+++++$$$$$$@@@@@......",
"......++++++++++++++++&=============-+++++)&,======>&++++%&;===========-+++++)&,====;&,==-++++)&,======>&+++++&===&++++++++++++&==========>&+++++++)&,======>&++++%&;===========-+++&===&++++++++++++++)&,====;&,==-+++++$$$$$$@@@@@......",
"......++++++++++++++++&=============-+++++++-======&+++++++>===========-+++++++-====>+-==-++++++-======&++++++&===&++++++++++++&==========&++++++++++-======&+++++++>===========-+++&===&++++++++++++++++-====>+-==-+++++$$$$$$@@@@@......",
"......+++++++++++++++++++++++++++++++++++++++++++++++++++++++++++++++++++++++++++++++++++++++++++++++++++++++++++++++++++++++++++++++++++++++++++++++++++++++++++++++++++++++++++++++++++++++++++++++++++++++++++++++++++$$$$$$@@@@@......",
"......+++++++++++++++++++++++++++++++++++++++++++++++++++++++++++++++++++++++++++++++++++++++++++++++++++++++++++++++++++++++++++++++++++++++++++++++++++++++++++++++++++++++++++++++++++++++++++++++++++++++++++++++++++$$$$$$@@@@@......",
"......+++++++++++++++++++++++++++++++++++++++++++++++++++++++++++++++++++++++++++++++++++++++++++++++++++++++++++++++++++++++++++++++++++++++++++++++++++++++++++++++++++++++++++++++++++++++++++++++++++++++++++++++++++$$$$$$@@@@@......",
"......+++++++++++++++++++++++++++++++++++++++++++++++++++++++++++++++++++++++++++++++++++++++++++++++++++++++++++++++++++++++++++++++++++++++++++++++++++++++++++++++++++++++++++++++++++++++++++++++++++++++++++++++++++$$$$$$@@@@@......",
"......+++++++++++++++++++++++++++++++++++++++++++++++++++++++++++++++++++++++++++++++++++++++++++++++++++++++++++++++++++++++++++++++++++++++++++++++++++++++++++++++++++++++++++++++++++++++++++++++++++++++++++++++++++$$$$$$@@@@@......",
"......+++++++++++++++++++++++++++++++++++++++++++++++++++++++++++++++++++++++++++++++++++++++++++++++++++++++++++++++++++++++++++++++++++++++++++++++++++++++++++++++++++++++++++++++++++++++++++++++++++++++++++++$$$$$$$$$$$$@@@@@......",
"......+++++++++++++++++++++++++++++++++++++++++++++++++++++++++++++++++++++++++++++++++++++++++++++++++++++++++++++++++++++++++++++++++++++++++++++++++++++++++++++++++++++++++++++++++++++++++++++++++++++++++++++$$$$$$$$$$$$@@@@@......",
"......+++++++++++++++++++++++++++++++++++++++++++++++++++++++++++++++++++++++++++++++++++++++++++++++++++++++++++++++++++++++++++++++++++++++++++++++++++++++++++++++++++++++++++++++++++++++++++++++++++++++++++++$$$$$$$$$$$$@@@@@......",
"......+++++++++++++++++++++++++++++++++++++++++++++++++++++++++++++++++++++++++++++++++++++++++++++++++++++++++++++++++++++++++++++++++++++++++++++++++++++++++++++++++++++++++++++++++++++++++++++++++++++++$$$$$$$$$$$$$$$$$$@@@@@......",
"......+++++++++++++++++++++++++++++++++++++++++++++++++++++++++++++++++++++++++++++++++++++++++++++++++++++++++++++++++++++++++++++++++++++++++++++++++++++++++++++++++++++++++++++++++++++++++++++++++++++++$$$$$$$$$$$$$$$$$$@@@@@......",
"......+++++++++++++++++++++++++++++++++++++++++++++++++++++++++++++++++++++++++++++++++++++++++++++++++++++++++++++++++++++++++++++++++++++++++++++++++++++++++++++++++++++++++++++++++++++++++++++++++++++++$$$$$$$$$$$$$$$$$$@@@@@......",
"......+++++++++++++++++++++++++++++++++++++++++++++++++++++++++++++++++++++++++++++++++++++++++++++++++++++++++$$$$$$$$$$$$$$$$$$$$$$$$$$$$$$$$$$$$$$$$$$$$$$$$$$$$$$$$$$$$$$$$$$$$$$$$$$$$$$$$$$$$$$$$$$$$$$$$$$$$$$$$$$$$$$$$@@@@@......",
"......+++++++++++++++++++++++++++++++++++++++++++++++++++++++++++++++++++++++++++++++++++++++++++++++++++++++++$$$$$$$$$$$$$$$$$$$$$$$$$$$$$$$$$$$$$$$$$$$$$$$$$$$$$$$$$$$$$$$$$$$$$$$$$$$$$$$$$$$$$$$$$$$$$$$$$$$$$$$$$$$$$$$$@@@@@......",
"......+++++++++++++++++++++++++++++++++++++++++++++++++++++++++++++++++++++++++++++++++++++++++++++++++++++++++$$$$$$$$$$$$$$$$$$$$$$$$$$$$$$$$$$$$$$$$$$$$$$$$$$$$$$$$$$$$$$$$$$$$$$$$$$$$$$$$$$$$$$$$$$$$$$$$$$$$$$$$$$$$$$$$@@@@@......",
"......@@@@@@@@@@@@@@@@@@@@@@@@@@@@@@@@@@@@@@@@@@@@@@@@@@@@@@@@@@@@@@@@@@@@@@@@@@@@@@@@@@@@@@@@@@@@@@@@@@@@@@@@@@@@@@@@@@@@@@@@@@@@@@@@@@@@@@@@@@@@@@@@@@@@@@@@@@@@@@@@@@@@@@@@@@@@@@@@@@@@@@@@@@@@@@@@@@@@@@@@@@@@@@@@@@@@@@@@@@@@@@......",
"......@@@@@@@@@@@@@@@@@@@@@@@@@@@@@@@@@@@@@@@@@@@@@@@@@@@@@@@@@@@@@@@@@@@@@@@@@@@@@@@@@@@@@@@@@@@@@@@@@@@@@@@@@@@@@@@@@@@@@@@@@@@@@@@@@@@@@@@@@@@@@@@@@@@@@@@@@@@@@@@@@@@@@@@@@@@@@@@@@@@@@@@@@@@@@@@@@@@@@@@@@@@@@@@@@@@@@@@@@@@@@@......",
"......@@@@@@@@@@@@@@@@@@@@@@@@@@@@@@@@@@@@@@@@@@@@@@@@@@@@@@@@@@@@@@@@@@@@@@@@@@@@@@@@@@@@@@@@@@@@@@@@@@@@@@@@@@@@@@@@@@@@@@@@@@@@@@@@@@@@@@@@@@@@@@@@@@@@@@@@@@@@@@@@@@@@@@@@@@@@@@@@@@@@@@@@@@@@@@@@@@@@@@@@@@@@@@@@@@@@@@@@@@@@@@......",
"..........................................................................................................................................................................................................................................",
"..........................................................................................................................................................................................................................................",
".........................................................................................................................................................................................................................................."};
