/* XPM */
static char * D:\FEUP\lcom_proj_xpms\menus\titles_tries\pause_partes\pause_title_left_xpm[] = {
"140 95 30 1",
" 	c #000533",
".	c #110B2E",
"+	c #8C3613",
"@	c #D95100",
"#	c #3C1A26",
"$	c #EB5700",
"%	c #B24306",
"&	c #FF6B00",
"*	c #FF6500",
"=	c #FD5E00",
"-	c #27132B",
";	c #E5814B",
">	c #793019",
",	c #C54B00",
"'	c #D49172",
")	c #FFFFFF",
"!	c #CCB0A7",
"~	c #DC885E",
"{	c #CCA697",
"]	c #E5E2E4",
"^	c #FF751A",
"/	c #F17A33",
"(	c #F0F0F2",
"_	c #CFBAB8",
":	c #DBD4D6",
"<	c #D3C6C7",
"[	c #65281D",
"}	c #A03D0E",
"|	c #FF6E00",
"1	c #502122",
"                                                                                          .+                                                ",
"                             .@#                                                         .$%                                                ",
"                            .$&*#                                                       .$&%                                                ",
"                            @&&&=-                                                     .$&&%                                                ",
"                           @&&;&&=-                                                   .$&&&%                                                ",
">&&&&&&&&&&&&&&&&&&&&&-   ,&&')!&&=-                                                 .$&&&&%>&&&&&&&&&&&&&&&&&&&&+           %&&&&&&&&&&&&&&",
">&&&&&&&&&&&&&&&&&&&&&-  %&&~)))!&&=-                                               .$&&';&%>&&&&&&&&&&&&&&&&&&&&+           %&&&&&&&&&&&&&&",
">&&&&&&&&&&&&&&&&&&&&&- %&&;))))){&&=-                                             .$&&');&%>&&&&&&&&&&&&&&&&&&&&+           %&&&&&&&&&&&&&&",
">&&])))))))))))))))!&&-+&&;))))))){&&=-                                           .$&&'));&%>&&))))))))))))))))^&+           %&;))))))))))))",
">&&])))))))))))))))!&&%&&/))))))))){&&=-                                         .$&&')));&%>&&))))))))))))))))^&+           %&;))))))))))))",
">&&])))))))))))))))!&&&&/()))))))))){&&=-                                       .$&&'))));&%>&&))))))))))))))))^&+           %&;))))))))))))",
">&&])))))))))))))))!&&&/()))))))))))){&&=-                                     .$&&')))));&%>&&))))))))))))))))^&+           %&;))))))))))))",
">&&])))))))))))))))!&&^])))))))))))))){&&$.                                   .$&&'))))));&%>&&))))))))))))))))^&+           %&;))))))))))))",
">&&])))))))))))))))!&^])))))))))))))))){&&$.                                 .$&&')))))));&%>&&))))))))))))))))^&+           %&;))))))))))))",
">&&])))))))))))))))!^]))))))))))))))))))'&&$.                               .$&&'))))))));&%>&&))))))))))))))))^&+           %&;))))))))))))",
">&&])))))))))))))))_:))))))))))))))))))))'&&$.                             .$&&')))))))));&%>&&))))))))))))))))^&+           %&;))))))))))))",
">&&]))))))))))))))))))))))))))))))))))))))'&&$.                           .$&&'))))))))));&%>&&))))))))))))))))^&+           %&;))))))))))))",
">&&]))))))))))))))):())))))))))))))))))))))'&&$.                         .$&&{)))))))))));&%>&&))))))))))))))))^&+           %&;))))))))))))",
">&&])))))))))))))))!/())))))))))))))))))))))'&&$.                       .$&&{))))))))))));&%>&&))))))))))))))))^&+           %&;))))))))))))",
">&&])))))))))))))))!&/())))))))))))))))))))))'&&$.                     .$&&{)))))))))))));&%>&&))))))))))))))))^&+           %&;))))))))))))",
">&&])))))))))))))))!&&/())))))))))))))))))))))'&&$                    .$&&{))))))))))))));&%>&&))))))))))))))))^&+           %&;))))))))))))",
">&&])))))))))))))))!&&&/())))))))))))))))))))))~&&@                  .$&&{)))))))))))))));&%>&&))))))))))))))))^&+           %&;))))))))))))",
">&&])))))))))))))))!&&&&/())))))))))))))))))))));&&@                .$&&{))))))))))))))));&%>&&))))))))))))))))^&+           %&;))))))))))))",
">&&])))))))))))))))!&&@&&/())))))))))))))))))))));&&@              .$&&{)))))))))))))))));&%>&&))))))))))))))))^&+           %&;))))))))))))",
">&&])))))))))))))))!&&-%&&/())))))))))))))))))))));&&@            .$&&{))))))))))))))))));&%>&&))))))))))))))))^&+           %&;))))))))))))",
">&&])))))))))))))))!&&- %&&/())))))))))))))))))))));&&@          .$&&{)))))))))))))))))));&%>&&))))))))))))))))^&+           %&;))))))))))))",
">&&])))))))))))))))!&&-  +&&/())))))))))))))))))))));&&@        .$&&{))))))))))))))))))));&%>&&))))))))))))))))^&+           %&;))))))))))))",
">&&])))))))))))))))!&&-   +&&/())))))))))))))))))))));&&@      .$&&{)))))))))))))))))))));&%>&&))))))))))))))))^&+           %&;))))))))))))",
">&&])))))))))))))))!&&-    +&&/())))))))))))))))))))))/&&@    .$&&{))))))))))))))))))))));&%>&&))))))))))))))))^&+           %&;))))))))))))",
">&&])))))))))))))))!&&-    #*&&<)))))))))))))))))))))){&&*#  .$&&{)))))))))))))))))))))));&%>&&))))))))))))))))^&+           %&;))))))))))))",
">&&])))))))))))))))!&&-   #*&&<)))))))))))))))))))))){&&*#  .$&&{))))))))))))))))))))))));&%>&&))))))))))))))))^&+           %&;))))))))))))",
">&&])))))))))))))))!&&-  #*&&<)))))))))))))))))))))){&&*#  .$&&{)))))))))))))))))))))))));&%>&&))))))))))))))))^&+           %&;))))))))))))",
">&&])))))))))))))))!&&- #*&&<)))))))))))))))))))))){&&*#  .$&&{))))))))))))))))))))))))));&%>&&))))))))))))))))^&+           %&;))))))))))))",
">&&])))))))))))))))!&&-#*&&<)))))))))))))))))))))){&&*#  .$&&{)))))))))))))))))))))))))));&%>&&))))))))))))))))^&+           %&;))))))))))))",
">&&])))))))))))))))!&&[*&&<)))))))))))))))))))))){&&*#  .$&&{))))))))))))))))))))))))))));&%>&&))))))))))))))))^&+           %&;))))))))))))",
">&&])))))))))))))))!&&&&&<)))))))))))))))))))))){&&*#  .$&&{)))))))))))))))))))))))))))));&%>&&))))))))))))))))^&+           %&;))))))))))))",
">&&])))))))))))))))!&&&&<)))))))))))))))))))))){&&*#  .$&&{))))))))))))))))))))))))))))));&%>&&))))))))))))))))^&+           %&;))))))))))))",
">&&])))))))))))))))!&&&<)))))))))))))))))))))){&&*#  .$&&{)))))))))))))))))))))))))))))));&%>&&))))))))))))))))^&+           %&;))))))))))))",
">&&])))))))))))))))!&&<))))))))))))))))))))))!&&*#  .$&&{))))))))))))))))))))))))))))))));&%>&&))))))))))))))))^&+           %&;))))))))))))",
">&&])))))))))))))))!&<))))))))))))))))))))))!&&*#  .$&&{)))))))))))))))))))))))))))))))));&%>&&))))))))))))))))^&+           %&;))))))))))))",
">&&])))))))))))))))!<))))))))))))))))))))))!&&*#  .$&&{))))))))))))))))))))))))))))))))));&%>&&))))))))))))))))^&+           %&;))))))))))))",
">&&]))))))))))))))))))))))))))))))))))))))!&&*#  -=&&{)))))))))))))))))))))))))))))))))));&%>&&))))))))))))))))^&}           %&;))))))))))))",
">&&])))))))))))))))))))))))))))))))))))))!&&*#  -=&&{))))))))))))))))))))))))))))))))))));&%>&&))))))))))))))))^&&>          %&;))))))))))))",
">&&]))))))))))))))))))))))))))))))))))))!&&*#  -=&&{)))))))))))))))))))))))))))))))))))));&%>&&)))))))))))))))):|&&>         %&;))))))))))))",
">&&])))))))))))))))))))))))))))))))))))!&&*#  -=&&{))))))))))))))))))))))))))))))))))))));&%>&&))))))))))))))))):|&&>        %&;))))))))))))",
">&&]))))))))))))))))))))))))))))))))))!&&*#  -=&&{)))))))))))))))))))))))))))))))))))))));&%>&&)))))))))))))))))):|&&>       %&;))))))))))))",
">&&])))))))))))))))))))))))))))))))))!&&*#  -=&&{))))))))))))))))))))))]{))))))))))))))));&%>&&))))))))))))))))))):|&&>      %&;))))))))))))",
">&&]))))))))))))))))))))))))))))))))!&&*#  -=&&{))))))))))))))))))))))]^'))))))))))))))));&%>&&)))))))))))))))))))):|&&>     %&;))))))))))))",
">&&])))))))))))))))))))))))))))))))!&&*#  -=&&{))))))))))))))))))))))]^&'))))))))))))))));&%>&&))))))))))))))))))))):|&&>    %&;))))))))))))",
">&&]))))))))))))))))))))))))))))))!&&*#  -=&&{))))))))))))))))))))))]^&&'))))))))))))))));&%>&&)))))))))))))))))))))):|&&>   %&;))))))))))))",
">&&])))))))))))))))))))))))))))))!&&*#  -=&&{))))))))))))))))))))))]^&&&'))))))))))))))));&%>&&!)))))))))))))))))))))):|&&>  %&;))))))))))))",
">&&]))))))))))))))))))))))))))))!&&*#  -=&&{))))))))))))))))))))))]^&&*&'))))))))))))))));&%-=&&!)))))))))))))))))))))):|&&> %&;))))))))))))",
">&&])))))))))))))))))))))))))))!&&*#  -=&&{))))))))))))))))))))))]^&&>@&'))))))))))))))));&% -=&&!)))))))))))))))))))))):|&&>%&;))))))))))))",
">&&]))))))))))))))))))))))))))!&&*#  -=&&{))))))))))))))))))))))]^&&> @&'))))))))))))))));&%  -=&&!)))))))))))))))))))))):|&&=&;))))))))))))",
">&&])))))))))))))))))))))))))!&&*#  -=&&{))))))))))))))))))))))]^&&>  @&'))))))))))))))));&%   -=&&!)))))))))))))))))))))):|&&&;))))))))))))",
">&&]))))))))))))))))))))))))!&&*#  -=&&{))))))))))))))))))))))]^&&>   @&'))))))))))))))));&%    -=&&!)))))))))))))))))))))):|&&;))))))))))))",
">&&])))))))))))))))))))))))!&&*#  -=&&{))))))))))))))))))))))]^&&>    @&'))))))))))))))));&%     -*&&_)))))))))))))))))))))):|&;))))))))))))",
">&&]))))))))))))))))))))))!&&*#  -=&&{))))))))))))))))))))))]^&&>     @&'))))))))))))))));&%      #*&&<)))))))))))))))))))))):|;))))))))))))",
">&&])))))))))))))))))))))!&&*#  -=&&{))))))))))))))))))))))]^&&>      @&'))))))))))))))));&%       #*&&<)))))))))))))))))))))):~))))))))))))",
">&&]))))))))))))))))))))!&&*#  -=&&{))))))))))))))))))))))]^&&>       @&'))))))))))))))));&%        #*&&<))))))))))))))))))))))())))))))))))",
">&&])))))))))))))))))))!&&*#  -=&&{))))))))))))))))))))))]^&&>        @&'))))))))))))))));&%         #*&&<))))))))))))))))))))))))))))))))))",
">&&]))))))))))))))))))!&&*#  -=&&{))))))))))))))))))))))]^&&>         @&'))))))))))))))));&%          #*&&<)))))))))))))))))))))))))))))))))",
">&&])))))))))))))))))!&&*#    %&&')))))))))))))))))))))));&&@         @&'))))))))))))))));&%           #*&&<))))))))))))))))))))))))))))))))",
">&&]))))))))))))))))!&&*#      %&&')))))))))))))))))))))));&&@        @&'))))))))))))))));&%            #&&&<)))))))))))))))))))))))))))))))",
">&&])))))))))))))))<&&*#        %&&')))))))))))))))))))))));&&@       @&'))))))))))))))));&%             1&&&:))))))))))))))))))))))))))))))",
">&&])))))))))))))))!&&1          %&&')))))))))))))))))))))));&&@      @&'))))))))))))))));&%              1&&|:)))))))))))))))))))))))))))))",
">&&])))))))))))))))!&&-           ,&&')))))))))))))))))))))));&&@     @&'))))))))))))))));&%               1&&|:))))))))))))))))))))))))))))",
">&&])))))))))))))))!&&-            @&&')))))))))))))))))))))));&&%    @&'))))))))))))))));&%                1&&|:)))))))))))))))))))))))))))",
">&&])))))))))))))))!&&-             @&&')))))))))))))))))))))));&&%   @&'))))))))))))))));&%                 1&&|:))))))))))))))))))))))))))",
">&&])))))))))))))))!&&-              @&&')))))))))))))))))))))));&&%  @&'))))))))))))))));&%                  1&&|:))))))))))))))))))))))))!",
">&&])))))))))))))))!&&-               @&&')))))))))))))))))))))));&&% @&'))))))))))))))));&%                   1&&|:))))))))))))))))))))))_&",
">&&])))))))))))))))!&&-                @&&')))))))))))))))))))))));&&%@&'))))))))))))))));&%                    >&&|:))))))))))))))))))))<&&",
">&&])))))))))))))))!&&-                 @&&')))))))))))))))))))))));&&&&'))))))))))))))));&%                     >&&|:))))))))))))))))))<&&*",
">&&])))))))))))))))!&&-                  @&&')))))))))))))))))))))));&&&'))))))))))))))));&%                      >&&^]))))))))))))))))<&&*#",
">&&])))))))))))))))!&&-                   @&&')))))))))))))))))))))));&&'))))))))))))))));&%                       >&&^]))))))))))))))<&&*# ",
">&&])))))))))))))))!&&-                    @&&')))))))))))))))))))))));&'))))))))))))))));&%                        >&&^]))))))))))))<&&*#  ",
">&&])))))))))))))))!&&-                     @&&')))))))))))))))))))))));'))))))))))))))));&%                         >&&^]))))))))))<&&&#   ",
">&&])))))))))))))))!&&-                      @&&')))))))))))))))))))))))!))))))))))))))));&%                          >&&^])))))))):|&&1    ",
">&&])))))))))))))))!&&-                       @&&')))))))))))))))))))))))))))))))))))))));&%                           +&&^])))))):|&&1     ",
">&&&&&&&&&&&&&&&&&&&&&-                        @&&')))))))))))))))))))))!&&&&&&&&&&&&&&&&&&%                            +&&^])))):|&&1      ",
">&&&&&&&&&&&&&&&&&&&&&-                         @&&')))))))))))))))))))!&&&&&&&&&&&&&&&&&&&%                             +&&^])):|&&1       ",
">&&&&&&&&&&&&&&&&&&&&&-                          @&&')))))))))))))))))!&&&&&&&&&&&&&&&&&&&&%                              +&&^(:|&&[       .",
"                                                  @&&')))))))))))))))!&&=-                                                 +&&$*&&>         ",
"                                                   @&&')))))))))))))!&&=-                                                   +&&&&>          ",
"                                                    @&&')))))))))))!&&=-                                                     +&&>           ",
"                                                    .$&&')))))))))!&&=-                                                       %>            ",
"                                                     .$&&')))))))!&&=-                                                                      ",
"                                                      .$&&')))))!&&=-                                                                       ",
"                                                       .$&&')))!&&=-                                                                        ",
"                                                        .$&&')!&&*#                                                                         ",
"                                                         .$&&;&&*#                                                                          ",
"                                                          .$&&&*#                                                                           ",
"                                                           .$&*#                                                                            ",
"                                                            .@#                                                                             ",
"                                                                                                                                            "};
