/* XPM */
static char * D:\FEUP\lcom_proj_xpms\menus\titles_tries\pause_partes\pause_title_right_xpm[] = {
"140 95 31 1",
" 	c #000533",
".	c #FF6B00",
"+	c #27132B",
"@	c #B24306",
"#	c #FF6500",
"$	c #502122",
"%	c #8C3613",
"&	c #3C1A26",
"*	c #FFFFFF",
"=	c #D3C6C7",
"-	c #D49172",
";	c #E5E2E4",
">	c #FD5E00",
",	c #E5814B",
"'	c #EB5700",
")	c #F0F0F2",
"!	c #F17A33",
"~	c #110B2E",
"{	c #D95100",
"]	c #FF751A",
"^	c #C54B00",
"/	c #DBD4D6",
"(	c #FF6E00",
"_	c #793019",
":	c #CCB0A7",
"<	c #CCA697",
"[	c #A03D0E",
"}	c #CFBAB8",
"|	c #65281D",
"1	c #DC885E",
"2	c #D09984",
"                                                                                                                                            ",
"                                                                                                                                            ",
"                                                                                                                                            ",
"                                                                                                                                            ",
"                                                                                                                                            ",
"......+                       @.............................#$        $....................................................................%",
"......+                      @.............................#&         $...................................................................$ ",
"......+                     @.............................#&          $..................................................................$  ",
"***=..+                    @..-***********************=..#&           $..;**********************************************************-..#&   ",
"***=..+                   @..-***********************=..#&            $..;*********************************************************-..>&    ",
"***=..+                  @..-***********************=..#&             $..;********************************************************,..>+     ",
"***=..+                 @..-***********************=..#&              $..;*******************************************************,..'+      ",
"***=..+                @..-***********************=..#&               $..;*****************************************************)!..'~       ",
"***=..+               @..-***********************=..#&                $..;****************************************************)!..{~        ",
"***=..+              @..-***********************=..#&                 $..;***************************************************;]..{          ",
"***=..+             @..-***********************=..#&                  $..;**************************************************;]..^           ",
"***=..+            @..-***********************/(.#&                   $..;*************************************************/(..@            ",
"***=..+           @..-***********************/(.#&                    $..;************************************************/(..%             ",
"***=..+          @..-***********************/(.#&                     $..;***********************************************=...%              ",
"***=..+         @..-***********************/(.#&                      $..;**********************************************=..._               ",
"***=..+        @..-***********************/(.#&                       $..;*********************************************:..._                ",
"***=..+       @..-***********************/(..$                        $..;********************************************:...$                 ",
"***=..+      @..-***********************/(..$                         $..;*******************************************<..#$                  ",
"***=..+     @..-***********************/(..$                          $..;***************=.............................#&                   ",
"***=..+    @..-***********************/(..$                           $..;***************=............................>&                    ",
"***=..+   @..-***********************/(..$                            $..;***************=...........................>+                     ",
"***=..+  @..-***********************/(..$                             $..;***************=..+                                               ",
"***=..+ %..-***********************/(..$                              $..;***************=..+                                               ",
"***=..+ @.!***********************/(..$                               $..;***************=..+                                               ",
"***=..+ @.,**********************/(..$                                $..;***************=..+                                               ",
"***=..+ @.,*********************/(..$                                 $..;***************=..+                                               ",
"***=..+ @.,********************/(..$                                  $..;***************=..+                                               ",
"***=..+ @.,*******************;]..$                                   $..;***************=..+                                               ",
"***=..+ @.,******************;]......................................_$..;***************=.........>+                                       ",
"***=..+ @.,*****************;]......................................._$..;***************=..........>+                                      ",
"***=..+ @.,****************;]........................................_$..;***************=...........>+                                     ",
"***=..+ @.,****************)***************************************.._$..;*************************<..>+                                    ",
"***=..+ @.,********************************************************.._$..;**************************<..>+                                   ",
"***=..+ @.,********************************************************.._$..;***************************<..>+                                  ",
"***=..+ @.,********************************************************.._$..;****************************<..>+                                 ",
"***=..+ @.,********************************************************.._$..;*****************************<..>+                                ",
"***=..+ @.,********************************************************.._$..;******************************<..>+                               ",
"***=..+ @.,********************************************************.._$..;*******************************<..#&                              ",
"***=..+ @.,********************************************************.._$..;********************************<..#&                             ",
"***=..+ @.,********************************************************.._$..;*********************************<..#&                            ",
"***=..+ @.,********************************************************.._$..;**********************************<..#&                           ",
"***=..+ @.,********************************************************.._$..;***********************************<..#&                          ",
"***=..+ @.,********************************************************.._$..;************************************:..#&                         ",
"***=..+ @.,********************************************************.._$..;*************************************:..#&                        ",
"***=..+ @.,********************************************************.._$..;**************************************:..#&                       ",
"***=..+ @.,********************************************************.._$..;***************************************:..#&                      ",
"***=..+ @........................................<*****************.._$..;***************=...........................#&                     ",
"***=..+ @........................................<*****************.._$..;***************=............................#$                    ",
"***=..+ @........................................<*****************.._$..;***************=..............................$                   ",
"***=..+                                        @.<*****************.._$..;***************=..+                           ~                   ",
"***=..+                                        @.<*****************.._$..;***************=..+                                               ",
"***=..+                                        @.<*****************.._$..;***************=..+                                               ",
"***=..+                                        @.<*****************.._$..;***************=..+                                               ",
"***=..+                                        {.<*****************.._$..;***************=..+                                               ",
"***=..+                                       {..<*****************.._$..;***************=..+                                               ",
"***=..+                                      {..(/*****************.._$..;***************=..+                                               ",
"***=..+              _........................../******************.._$..;***************=...........................>&                     ",
"***=..+             %..........................=******************:.._$..;***************=............................#&                    ",
"***=..+            %..........................:******************:..>+$..;***************=.............................#$                   ",
"***=..+           [..!)*****************************************:..>+ $..;*******************************************}...$                  ",
"***<..+          @..!)*****************************************:..>+  $..;********************************************=...|                 ",
"**:..>~         ^..,******************************************:..>+   $..;*********************************************=(.._                ",
"*:..>+         {..,******************************************:..>+    $..;**********************************************/(..%               ",
":..>+        ~{..-******************************************:..>+     $..;***********************************************/]..%              ",
"..>+        ~'..-******************************************=..>+      $..;************************************************;]..[             ",
".>+        +'..<******************************************=..>+       $..;*************************************************;!..@            ",
"#+        +>..<******************************************=..>+        $..;**************************************************)!..^           ",
"&        &#..:******************************************=..>+         $..;***************************************************),..{          ",
"        &#..:******************************************=..>+          $..;*****************************************************,..{~        ",
"       $...=******************************************=..>+           $..;******************************************************1..'~       ",
"      $..(=******************************************=..>+            $..;*******************************************************-..'+      ",
"     _..(/******************************************=..>+             $..;********************************************************2..>+     ",
"    _..]/******************************************=..>+              $..;*********************************************************<..>&    ",
"   %..>;******************************************=..>+               $..;**********************************************************<..#&   ",
"  %.................................................>+                $.................................................................#$  ",
" @.................................................>+                 $...................................................................$ ",
"^.................................................>+                  $...................................................................._",
"                                                                                                                                            ",
"                                                                                                                                            ",
"                                                                                                                                            ",
"                                                                                                                                            ",
"                                                                                                                                            ",
"                                                                                                                                            ",
"                                                                                                                                            ",
"                                                                                                                                            ",
"                                                                                                                                            ",
"                                                                                                                                            ",
"                                                                                                                                            ",
"                                                                                                                                            ",
"                                                                                                                                            "};
