/* XPM */
static char * C:\Users\angel\OneDrive\Imagens\Plataforms\plataform_mid1_xpm[] = {
"100 50 3 1",
" 	c None",
".	c #FF1700",
"+	c #BFBCBC",
"                                                                                                    ",
"                                                                                                    ",
"                                                                                                    ",
"                                                                                                    ",
"                                                                                                    ",
"                                                                                                    ",
"                                                                                                    ",
"                                                                                                    ",
"                                                                                                    ",
"                                                                                                    ",
"                                                                                                    ",
"                                                                                                    ",
"                                                                                                    ",
"                                                                                                    ",
"                                                                                                    ",
"                                                                                                    ",
"                                                                                                    ",
"                                                                                                    ",
"                                                                                                    ",
"               ......++++++++++++++++++++++++++++++++++++++++++++++++++++++++++......               ",
"              .......++++++++++++++++++++++++++++++++++++++++++++++++++++++++++.......              ",
"             ........++++++++++++++++++++++++++++++++++++++++++++++++++++++++++........             ",
"             ........++++++++++++++++++++++++++++++++++++++++++++++++++++++++++........             ",
"             ........++++++++++++++++++++++++++++++++++++++++++++++++++++++++++........             ",
"             ........++++++++++++++++++++++++++++++++++++++++++++++++++++++++++........             ",
"             ........++++++++++++++++++++++++++++++++++++++++++++++++++++++++++........             ",
"             ........++++++++++++++++++++++++++++++++++++++++++++++++++++++++++........             ",
"              .......++++++++++++++++++++++++++++++++++++++++++++++++++++++++++.......              ",
"               ......++++++++++++++++++++++++++++++++++++++++++++++++++++++++++......               ",
"                                                                                                    ",
"                                                                                                    ",
"                                                                                                    ",
"                                                                                                    ",
"                                                                                                    ",
"                                                                                                    ",
"                                                                                                    ",
"                                                                                                    ",
"                                                                                                    ",
"                                                                                                    ",
"                                                                                                    ",
"                                                                                                    ",
"                                                                                                    ",
"                                                                                                    ",
"                                                                                                    ",
"                                                                                                    ",
"                                                                                                    ",
"                                                                                                    ",
"                                                                                                    ",
"                                                                                                    ",
"                                                                                                    "};
